<svg width="84" height="81" viewBox="0 0 84 81" fill="none" xmlns="http://www.w3.org/2000/svg">
<path d="M36.9145 0.288397C17.7478 2.37173 2.33117 17.7884 0.24784 36.5384C-1.83549 56.1217 9.41451 73.6217 26.4978 80.2884C27.7478 80.7051 28.9978 79.8717 28.9978 78.2051V71.5384C28.9978 71.5384 27.3312 71.9551 25.2478 71.9551C19.4145 71.9551 16.9145 66.9551 16.4978 64.0384C16.0812 62.3717 15.2478 61.1217 13.9978 59.8717C12.7478 59.4551 12.3312 59.4551 12.3312 59.0384C12.3312 58.2051 13.5812 58.2051 13.9978 58.2051C16.4978 58.2051 18.5812 61.1217 19.4145 62.3717C21.4978 65.7051 23.9978 66.5384 25.2478 66.5384C26.9145 66.5384 28.1645 66.1217 28.9978 65.7051C29.4145 62.7884 30.6645 59.8717 33.1645 58.2051C23.5812 56.1217 16.4978 50.7051 16.4978 41.5384C16.4978 36.9551 18.5812 32.3717 21.4978 29.0384C21.0812 28.2051 20.6645 26.1217 20.6645 23.2051C20.6645 21.5384 20.6645 19.0384 21.9145 16.5384C21.9145 16.5384 27.7478 16.5384 33.5812 21.9551C35.6645 21.1217 38.5812 20.7051 41.4978 20.7051C44.4145 20.7051 47.3312 21.1217 49.8312 21.9551C55.2478 16.5384 61.4978 16.5384 61.4978 16.5384C62.3312 19.0384 62.3312 21.5384 62.3312 23.2051C62.3312 26.5384 61.9145 28.2051 61.4978 29.0384C64.4145 32.3717 66.4978 36.5384 66.4978 41.5384C66.4978 50.7051 59.4145 56.1217 49.8312 58.2051C52.3312 60.2884 53.9978 64.0384 53.9978 67.7884V78.6217C53.9978 79.8717 55.2478 81.1217 56.9145 80.7051C72.3312 74.4551 83.1645 59.4551 83.1645 41.9551C83.1645 16.9551 61.9145 -2.62827 36.9145 0.288397Z" fill="white"/>
</svg>
