<svg xmlns="http://www.w3.org/2000/svg" width="100" height="100" fill="none" viewBox="0 0 100 100"><path fill="#fff" d="M80.0006 13.3335H20.0007C16.3173 13.3335 13.334 16.3168 13.334 20.0002V80.0002C13.334 83.6835 16.3173 86.6668 20.0007 86.6668H80.0006C83.684 86.6668 86.6673 83.6835 86.6673 80.0002V20.0002C86.6673 16.3168 83.684 13.3335 80.0006 13.3335ZM36.514 73.3335H26.6806V41.6935H36.514V73.3335ZM31.4973 37.1702C28.3273 37.1702 25.764 34.6002 25.764 31.4368C25.764 28.2735 28.3307 25.7068 31.4973 25.7068C34.6573 25.7068 37.2273 28.2768 37.2273 31.4368C37.2273 34.6002 34.6573 37.1702 31.4973 37.1702ZM73.3473 73.3335H63.5206V57.9468C63.5206 54.2768 63.454 49.5568 58.4106 49.5568C53.294 49.5568 52.5073 53.5535 52.5073 57.6802V73.3335H42.6806V41.6935H52.114V46.0168H52.2473C53.5606 43.5302 56.7673 40.9068 61.5506 40.9068C71.5073 40.9068 73.3473 47.4602 73.3473 55.9802V73.3335V73.3335Z"/></svg>