<svg width="100" height="100" viewBox="0 0 100 100" fill="none" xmlns="http://www.w3.org/2000/svg">
<path d="M28 8C16.9773 8 8 16.9773 8 28V72C8 83.0227 16.9773 92 28 92H72C83.0227 92 92 83.0227 92 72V28C92 16.9773 83.0227 8 72 8H28ZM26 32H74C74.36 32 74.6995 32.0406 75.0195 32.1406L55.3594 51.7812C52.3994 54.7413 47.5811 54.7413 44.6211 51.7812L24.9805 32.1406C25.3005 32.0406 25.64 32 26 32ZM22.1406 34.9805L37.1797 50L22.1406 65.0195C22.0406 64.6995 22 64.36 22 64V36C22 35.64 22.0406 35.3005 22.1406 34.9805ZM77.8594 34.9805C77.9594 35.3005 78 35.64 78 36V64C78 64.36 77.9594 64.6995 77.8594 65.0195L62.8008 50L77.8594 34.9805ZM40 52.8203L41.7812 54.6211C44.0412 56.8811 47.0205 58 49.9805 58C52.9605 58 55.9197 56.8811 58.1797 54.6211L59.9805 52.8203L75.0195 67.8594C74.6995 67.9594 74.36 68 74 68H26C25.64 68 25.3005 67.9594 24.9805 67.8594L40 52.8203Z" fill="white"/>
</svg>
