<svg width="2041" height="459" viewBox="0 0 2041 459" fill="none" xmlns="http://www.w3.org/2000/svg">
<path d="M-15 15.7999L46.5278 24.9755C108.056 34.8436 231.111 52.1561 354.167 80.3755C477.222 107.556 600.278 145.644 723.333 182C846.389 218.356 969.444 256.444 1092.5 209.7C1215.56 162.956 1338.61 34.8436 1461.67 6.62424C1584.72 -20.5564 1707.78 52.1561 1830.83 98.8999C1953.89 145.644 2076.94 162.956 2138.47 172.824L2200 182V459H2138.47C2076.94 459 1953.89 459 1830.83 459C1707.78 459 1584.72 459 1461.67 459C1338.61 459 1215.56 459 1092.5 459C969.444 459 846.389 459 723.333 459C600.278 459 477.222 459 354.167 459C231.111 459 108.056 459 46.5278 459H-15V15.7999Z" fill="#273036"/>
</svg>
