<svg height="264.435" viewBox="0 0 270.991 264.435" width="270.991" xmlns="http://www.w3.org/2000/svg"><ellipse cx="28.85" cy="162.896" fill="#0e1049" rx="28.72" ry="12.485" transform="matrix(.39427876 -.91899089 .91899089 .39427876 -132.225 125.184)"/><circle cx="52.163" cy="188.295" fill="#c99085" r="25.393"/><circle cx="133.616" cy="128.44" fill="#0e1049" r="113.137"/><ellipse cx="125.142" cy="130.643" fill="#f8b5a4" rx="96.908" ry="71.726" transform="matrix(.94148231 -.33706239 .33706239 .94148231 -36.712 49.827)"/><ellipse cx="137.625" cy="189.749" fill="#f8b5a4" rx="97.667" ry="71.186" transform="matrix(.94148231 -.33706239 .33706239 .94148231 -55.905 57.493)"/><path d="m228.452 140.191c-3.9-10.232-9.258-2.29-18.087-8.973a66.953 66.953 0 0 1 3.672 7.448c17.6 42.121-10.922 94.146-63.705 116.2a126.478 126.478 0 0 1 -37.832 9.4 126.137 126.137 0 0 0 49.12-7.5c39.823-14.257 66.832-43.5 71.437-75.589a84.784 84.784 0 0 0 -4.605-40.986z" fill="#c99085"/><path d="m99.652 216.677c13.762-4.5 24.468-15.536 29.072-21.735 1.612-2.171 16.134 17.853 2.382 27.7-11.227 8.039-36.523-4.309-31.454-5.965z" fill="#fff"/><path d="m37.855 92.077c11.245-20.501 21.432-34.225 44.119-45.122a115.708 115.708 0 0 1 90.8-4.1c27.141 10.117 40.896 20.962 54.426 49.13 2.9 6.046-38.552 30.284-78.385 39.468-29.953 6.905-76.131 2.231-89.316-27.235-9.685 9.966-20.024 27.47-24.51 43.023.058-8.851-9.654-32.341 2.866-55.164z" fill="#c99085"/><path d="m237.211 69.311a84.319 84.319 0 0 0 -21.431-5.206q-3.1-3.165-6.419-6.063c17.83-1.643 30.931-7.909 31.231-15.879.371-9.876-19.048-18.624-43.375-19.539a97.273 97.273 0 0 0 -22.369 1.62c9.012-4.942 14.224-10.455 13.136-14.967-1.9-7.884-22.3-9.728-45.549-4.118-11.1 2.677-20.835 6.569-27.783 10.762 5.027-6.468 7.065-13.1 4.534-15.241-2.711-2.3-9.633 1.416-15.461 8.293a38.208 38.208 0 0 0 -4.01 5.684q-1.915-.909-3.915-1.774c-18.244-7.827-35.122-9.306-37.7-3.303-1.852 4.32 4.216 11.346 14.57 17.861a79.94 79.94 0 0 0 -24.988 3.972c-20.004 6.244-34.262 17.587-31.845 25.324 1.43 4.581 8.38 6.875 17.96 6.692a94.883 94.883 0 0 0 -11.464 7.823c-16.62 13.168-26.01 29-20.973 35.353 1.758 2.22 5.046 2.987 9.284 2.49-1.323 2.518-2.571 5.186-3.709 7.99-8.167 20.107-7.777 39.255.871 42.767 4.058 1.648 9.214-.44 14.387-5.2a99.626 99.626 0 0 0 4.3 15.845c12.218-13.38 6.441-43.852 32.305-73.346 13.184 29.466 60.5 34.256 91.566 31.147 26.263-2.628 56.137-13.19 73.231-21.972 22.042 8.267 42.938 6.811 46.785-3.309 3.868-10.181-10.98-25.271-33.169-33.706zm-80.65-37.575h-.007.013zm-64.736 5.015c-1.227.465-2.451.944-3.669 1.453a7.29 7.29 0 0 0 .367-2.729q1.664.674 3.302 1.276z" fill="#0e1049"/><circle cx="214.713" cy="126.932" fill="#f8b5a4" r="27.052"/><path d="m219.107 145.588a.851.851 0 0 1 -.2-1.676 17.489 17.489 0 0 0 -8.381-33.96.85.85 0 0 1 -.408-1.65 19.19 19.19 0 0 1 9.2 37.261.9.9 0 0 1 -.211.025z" fill="#403838"/><ellipse cx="181.848" cy="117.699" fill="#0e1049" rx="12.929" ry="28.893" transform="matrix(.37630512 -.9264958 .9264958 .37630512 4.371 241.89)"/><path d="m93.146 209.211a.846.846 0 0 1 -.32-.064l-6.8-2.762a6.533 6.533 0 0 1 -2.937-9.737l1.6-2.349a.85.85 0 1 1 1.4.959l-1.6 2.349a4.834 4.834 0 0 0 2.172 7.2l6.8 2.762a.85.85 0 0 1 -.32 1.638z" fill="#403838"/><path d="m90.057 140.669a7.5 7.5 0 0 1 -2.757-14.479 158.633 158.633 0 0 1 38.854-9.941 7.5 7.5 0 0 1 1.451 14.93 146.1 146.1 0 0 0 -34.8 8.965 7.484 7.484 0 0 1 -2.748.525z" fill="#0e1049"/><path d="m33.805 168.839a7.5 7.5 0 0 1 -5.138-12.965 61.68 61.68 0 0 1 24.6-14.228 7.5 7.5 0 0 1 3.686 14.54 47.287 47.287 0 0 0 -18.012 10.614 7.478 7.478 0 0 1 -5.136 2.039z" fill="#0e1049"/><ellipse cx="126.113" cy="159.253" fill="#fff" rx="26.642" ry="15.702" transform="matrix(.919417 -.39328409 .39328409 .919417 -52.469 62.431)"/><path d="m132.288 173.689a44.332 44.332 0 0 0 6.138-3.208 20.436 20.436 0 0 0 -28.213-16.581 20.1 20.1 0 0 0 -7.9 6.04c-1.627 3.411-1.97 6.822-.7 9.791 3.415 7.969 17.147 9.745 30.675 3.958z" fill="#2b2929"/><ellipse cx="59.559" cy="184.906" fill="#fff" rx="20.926" ry="12.952" transform="matrix(.919417 -.39328409 .39328409 .919417 -67.921 38.324)"/><path d="m64.653 196.815a33.149 33.149 0 0 0 4.81-2.554 17.707 17.707 0 0 0 -1.287-4.741c-3.66-8.556-13.187-12.686-21.279-9.224a15.185 15.185 0 0 0 -6.16 4.829 9.864 9.864 0 0 0 -.418 8.011c2.814 6.577 13.708 8.224 24.334 3.679z" fill="#2b2929"/></svg>