<svg enable-background="new 0 0 437.384 313.262" height="314" viewBox="0 0 437.384 313.262" width="438" xmlns="http://www.w3.org/2000/svg"><path d="m437.021 241.12c.097-6.787-.448-12.393-2.802-16.279 6.708-12.08-1.341-20.528 2.147-31.339 1.568-5.071.645-11.364-1.937-19.075 6.171-15.248.438-38.642 2.421-55.759 1.451-13.185-1.439-30.954-.033-44.22-.026-11.45 2.055-27.221-2.549-36.761 3.764-9.034 3.726-17.155.044-24.885 1.905-3.797 1.827-7.638 2.326-12.072-6.759-.512-15.991-1.123-22.017 2.378-8.868-4.807-33.843-2.934-44.615-1.627-9.162-.612-15.313-2.366-23.109 1.1-5.945-3.478-35.003-2.843-43.952-1.026-2.011.755-2.712.772-4.902.123-7.191-1.994-13.39-1.83-19.297.51-5.035 1.471-8.489-2.604-14.42-1.789-3.816-.059-10.677 2.662-12.571 2.203-10.87-3.163-23.911-2.502-36.076-2.039-6.777.67-13.545.527-20.331-.097-6.101-.474-8.586 2.371-11.89 1.707-13.146-2.708-28.435-2.259-41.993-.993-15.064.59-32.93-3.36-47.688.96-1.579.738-2.321.729-4.018.046-6.919-2.404-12.117-2.473-19.64-.354-1.447.414-2.119.625-3.934.101-8.606-2.32-13.094-2.166-21.501.554.732-.711-3.053-1.419-11.153-2.087-4.949-.026-7.98 1.533-11.537 1.759-3.61.161-7.353-1.62-11.087-1.775-3.457-.176-7.386.142-9.996.519 2.282 9.626-.364 16.435-.532 26.152.65 9.805-1.885 24.976 2.806 32.545-3.806 8.644-3.82 16.211-.207 25.139-3.587 9.213-3.573 15.191.035 25.398-4.63 7.195-2.769 34.312-1.568 44.159-.634 8.36-2.273 17.09 1.199 23.682-5.662 15.113-.155 39.09-2.167 56.182-1.409 13.836 1.45 30.69.02 44.695-1.11 10.696.105 22.751.362 33.637 9.154-.15 12.5-.134 19.812.351 14.8 1.385 29.765-1.332 44.676.027 8.937-.107 26.385 1.701 33.518-1.652 1.635-.879 2.547-.76 4.019-.048 6.613 2.5 14.077 2.506 20.491-.034 2.152-.837 2.838-.688 4.394.078 5.779 3.548 16.991.154 22.474-.456 16.996 5.07 38.131.149 56.201 2.12 6.482-2.476 13.145-1.421 21.915.007 10.985.742 32.265-1.178 44.319-.146 13.183 1.473 31.415-1.267 44.798-.01 14.596 1.542 30.654-1.406 45.357.057 7.153.508 15.176.582 22.409-.028 14.987-1.242 31.865 1.203 46.941-.036l.003-4.556h.003v-.265l4.613-.265c.443-22.544-.287-44.404.219-66.516z" fill="#382d15"/><path d="m411.258 244.259c.57 4.38 3.48 14.68.42 19.56-.69 1.38-.77 2.14-.06 3.86 2.48 5.8 1.57 12.8.81 18.74-5.94-1.67-9.95.47-15.85.75-7.43-.42-26.83 1.29-31.34-1.9-6.77 3.01-12.1 1.49-20.05.96-10.57 1.12-29.5 2.85-38.71-1.41-5.08 2.92-15.09 3.43-21.86.04-6.71 3.19-13.75 3.23-21.59-.04-8.29 4-21.95 2.19-31.9 2.21-6.01-.57-9.68-.54-16.74-.01-14.04 1.29-24.93-1.05-38.65.05-4.18-.02-8.55.23-12.82.33-6.83.16-13.4-.08-18.53-2.44-3.68 1.23-6.99 2.03-9.96 2.27-2.42.2-4.61.02-6.59-.59-9.13-2.91-17.54 3.81-27.19-1.86-5.13 2.52-12.28 2.77-19.33 2.61-4.25-.08-8.47-.33-12.19-.31-11.06-.94-22.22.44-33.58.25-2.24-.03-4.48-.13-6.74-.31l-4.18.38c-1.12-27.56.37-55.43-.25-82.91-1.37-13.27 1.21-24.81-.01-38.31-.41-19.35.25-41.57-.11-60.01 1.21-7 2.08-14.14 0-19.02 1.26-11.58-.78-25.74-.06-36.89-.05-4.98 1.14-8.24 1.9-11.87-.09-3.53-1.31-7.43-1.57-11.88 5-.49 10.62-.74 15.26 1.17 1.35.67 1.94.8 3.81.07 5.56-2.2 12.04-2.2 17.78-.03 4.42 1.55 4.01-2.4 12.94-1.57 19.59.37 38.95-.25 58.39.12 12.58 1.23 26.28-1.36 38.87-.01 12.16 1.24 26.75-1.24 38.78-.01 14.82 1.74 35.64-3.04 48.74 1.88 5.72-3.02 13.3-1.6 20.55-1.05 9.7-1 30.6-2.77 38.31 1.36 8.86-3.13 14.05-3.14 22.04-.03 5.7-2.3 10.76-2.91 16.02-1.75 1.89.42 3.8 1.06 5.79 1.93 6.57-4.07 19.73-1.87 28.24-2.43 7.39.12 12.84 1.9 19.69 1.01.97-.13 1.97-.31 3-.55.57 3.74.85 9.48-.42 13.56-1.84 5.44.77 8.53.85 14.74-.17 2.02-.34 3.74-.51 5.14-.42 3.46-.86 5-1.3 4.54 2.36 7.29 2.5 11.19.48 18.66-.45 1.57-.27 2.15.09 3.41.36 1.28.65 2.48.85 3.63.89 4.72.52 8.59-1.16 13.41-.59 1.47-.6 2.12.04 3.49 3.75 12.8.32 28.3.84 41.37 1.1 11.76 1.49 25.03-.86 36.44-.58 2.86 1.89 5.02 1.48 10.31-.54 5.89-.67 11.76-.09 17.64.4 10.56.98 21.86-1.77 31.3z" fill="#4e73b9"/><g fill="#fff"><path d="m186.788 198.239c-17.72 12.64-32.46 30.69-51.34 40.93-1.37 4.47-22.72 23.92-27.26 22.91-2.32 5.86-4.77 7.86-10.28 8.63-1.75 5.34-4.83 7.78-10.34 8.26-.8 2.98-3.23 5.87-6.25 8.42-4.25-.08-8.47-.33-12.19-.31-11.06-.94-22.22.44-33.58.25 5.14-4.6 10.59-10.04 17.22-10.45.83-4.64 5.44-8.07 10.4-8.19 1.52-5.13 4.69-7.72 10.29-8.23 12.19-17.18 33.8-28.78 48.86-44.23 6.38-1.72 8.07-8.23 12.65-10.13 6.11-1.61 5.6-9.63 13.75-9.35 2.79-9.53 15.6-13.35 21.76-20.64 12.8-10.19 25.32-21.04 36.85-32.72 28.04 33.82 21 17.51-20.54 54.85z"/><path d="m200.478 255.469c-13.15 9.96-25.33 21.32-37.56 31.93-6.83.16-13.4-.08-18.53-2.44-3.68 1.23-6.99 2.03-9.96 2.27 1.52-1.12 2.92-2.28 4-3.6 7.61-5.59 13.79-14.39 22.63-17.62 1.42-5.74 5.9-4.05 7.86-8.15.82-1.94 3.19-3.15 5.86-3.39 10.24-13.79 28.13-22.45 39.57-36.02 19.58 22.88 12.7 12.76-13.87 37.02z"/><path d="m409.738 27.169c-5 3.76-13.61 8.98-25.48 19.45-13.49 9.91-25.74 21.44-38.84 31.86-9.18 5.18-14.42 17.05-25.34 19.03-.89 5.67-5.43 6.98-9.2 9.56-5.03 6-11.65 14.24-19.86 14.88-2.19 6.59-4.81 8.71-10.96 9.21-1.59 6.02-4.89 8.62-11.05 8.78-1.08 7.18-13.14 14.59-19.78 17.16-4.89 5.54-3.31 5.57-11.2 8.09-2.24 3.4-5.38 7.59-10.62 7.2-1.78 4.02-3.66 5.95-7.57 6.86l-20.3-25.03c1.51-2.41 3.33-3.42 7.23-4.68 6.77-5.01 13.84-14.55 22.95-14.44.62-5.28 5.56-8.91 11.13-8.69 1.35-5.79 4.73-8.55 11-8.75.84-6.37 9.55-11.18 14.33-15.13 12.93-10.32 24.83-21.6 37.53-32.32 9-2.54 7.39-8.48 13.52-10.77 6.78-1.43 5.58-10.68 14.81-9.8 2.33-10.59 16.58-14.28 23.03-22.22.32-.25.63-.5.95-.76 1.89.42 3.8 1.06 5.79 1.93 6.57-4.07 19.73-1.87 28.24-2.43 7.39.12 12.84 1.9 19.69 1.01z"/><path d="m411.928 86.669c.36 1.28.65 2.48.85 3.63-34.83 27.57-66.18 59.46-102.17 84.1-3.82 6.56-6.96 9.14-13.25 11.1-3.08 5.91-7.03 9.08-13.25 10.74-3.78 7.79-16.21 16.04-24.06 20.54-2.9 3.35-8.78 8.55-13.22 10.14-2.91 3.45-7.18 8.25-12.42 9.18-2.78 4.11-5.13 6.33-9.28 8.13l-14.26-17.93c43.17-32.34 83.21-66.07 125.14-102.32 25.29-20.64 51.12-41.86 76.65-63.92-.42 3.46-.86 5-1.3 4.54 2.36 7.29 2.5 11.19.48 18.66-.45 1.57-.27 2.15.09 3.41z"/></g><path d="m207.342 18.383 22.752.526c.931 24.369-.397 48.754-.427 73.122-.23 13.299.02 26.688.134 39.983-.022 6.905 1.452 15.124-1.126 21.899 2.42 4.652 1.209 9.539.933 14.388.809 8.501 2.356 18.811-.829 27.019 2.344 6.443 2.315 10.116.034 15.611 2.315 5.548 2.237 10.12-.211 15.393 3.114 5.744 1.747 21.651.324 28.559-.547 2.264 1.057 4.423.819 7.763-.166 3.114-1.472 5.058-1.434 7.266.713 4.017 1.571 9.744-.816 13.918 1.24 4.283 1.427 7.23.27 11.133l-20.676-.478c-.986-3.162.565-7.202.829-11.351-.327-8.695-1.36-19.36 2.157-27.285-2.356-4.197-2.1-10.874.289-15.397-2.301-5.172-2.269-9.93.21-15.319-4.1-9.824-.162-23.734-1.588-34.401-1.014-9.075.64-18.216-.236-27.25.049-7.097-1.6-15.32 1.349-22.126-4-8.142.753-12.281-1.416-19.39-1.098-3.228-.428-7.701 1.325-11.498-4.354-10.096-.153-23.87-1.484-34.811.29-18.968.045-38.273-1.182-57.274z" fill="#382d15"/><path d="m12.882 173.557.782-33.86c19.174-1.819 38.371.786 57.531-.391 17.15 1.903 34.161-.166 51.291 1.028 13.554 1.47 27.165-1.355 40.729-.074 6.259.483 12.555.439 18.775-.128 10.276.035 22.508-2.158 32.59 1.678 6.923-3.602 14.196-1.799 21.412-1.388 11.756-1.22 29.103-3.433 40.21 1.233 9.589-3.489 15.055-3.445 23.232-.05 8.256-3.445 15.06-3.329 22.909.314 6.206-4.436 34.147-2.624 42.503-.482 3.369.814 6.583-1.574 11.553-1.219 4.634.248 7.528 2.19 10.814 2.134 5.979-1.062 14.501-2.338 20.714 1.214 6.375-1.846 10.759-2.124 16.568-.402l-.711 30.771c-4.706 1.468-10.719-.842-16.892-1.234-12.167.539-29.777 1.912-40.606-3.209-6.246 3.506-16.183 3.126-22.914-.43-7.697 3.425-14.777 3.377-22.798-.312-14.608 6.1-35.335.241-51.196 2.363-13.505 1.51-27.11-.953-40.554.351-10.562-.073-22.799 2.382-32.929-2.008-7.006 2.524-12.77 3.423-17.33 2.004-9.872-3.111-17.973 4.429-28.639-1.868-15.025 6.48-35.523.227-51.806 2.209-28.23-.433-56.961-.069-85.238 1.756z" fill="#382d15"/></svg>