<svg height="1333.589" viewBox="0 0 1453.929 1333.589" width="1453.929" xmlns="http://www.w3.org/2000/svg"><path d="m30.238 1204.959c88.2-196.931 296.271-552.3 498.266-575.206 223.022-17.541 154.276 706.981-156.7 700.791-45.242-.9-72.587.545-219.595-.661-61.863-19.371-108.209-77.825-121.971-124.924z" fill="#92acef"/><path d="m240.043 1332.667c-28.726 0-55.707-.083-79.11-.284a2.479 2.479 0 0 1 -.689-.1c-30.97-9.184-60.509-27.182-85.426-52.047-22.929-22.881-39.613-49.365-46.98-74.572a2.494 2.494 0 0 1 .118-1.722c91.114-203.449 299.011-553.842 500.266-576.672a2.5 2.5 0 0 1 2.778 2.341l39.7 698.351a2.5 2.5 0 0 1 -2.468 2.642c-2.221.024-186.325 2.063-328.189 2.063zm-78.713-5.281c131.592 1.121 376.195-1.45 404.227-1.754l-39.4-693.078c-87.927 11.215-184.631 85.57-287.471 221.056-73.686 97.084-150.576 228.427-205.786 351.526 13.536 44.895 62.876 102.664 128.43 122.25z"/><path d="m387.283 1329.751 625.9.833c219.937.094 22.5-590.74-139.95-700.83-.468-2.383-10-124.237-166.032-123.769q-7.554.019-15.566.4c-154.365.864-163.135 123.368-163.135 123.368-107.076 189.321-162.964 446.447-141.217 699.998z" fill="#92acef"/><path d="m1280.495 1333.589-893.211-1.338a2.5 2.5 0 0 1 0-5l889.316 1.332c-132.6-290.174-294.784-536.856-405.43-697.411a2.507 2.507 0 0 1 -.394-.936c-.02-.1-.057-.368-.109-.79-2.458-20.231-21.859-120.963-162.575-120.963h-.892c-4.851.014-9.907.145-15.457.4-56.408 1.162-99.075 17.5-126.879 48.553-39.841 44.5-34.953 104.455-34.9 105.055a2.5 2.5 0 1 1 -4.98.448c-.056-.622-5.12-62.739 36.154-108.839 28.766-32.129 72.651-49.024 130.437-50.214 5.559-.258 10.686-.391 15.61-.405h.908c144.918 0 164.977 104.355 167.531 125.348 111.198 161.371 274.227 409.471 407.146 701.224a2.5 2.5 0 0 1 -2.275 3.536z"/><path d="m596.84 458.008 22.2 138.266s89.24 63.826 160.936-30.347l-15.953-146.866z" fill="#ffaac3"/><path d="m687.22 620.149a110.631 110.631 0 0 1 -14.935-1.022 131.884 131.884 0 0 1 -54.7-20.826 2.5 2.5 0 0 1 -1.009-1.664l-22.976-156.519a2.5 2.5 0 0 1 2.094-2.835l167.116-25.645a2.5 2.5 0 0 1 2.864 2.2l16.786 151.814a2.5 2.5 0 0 1 -.49 1.784c-31.74 41.964-66.982 52.713-94.75 52.713zm-65.861-25.319a130.316 130.316 0 0 0 51.79 19.368c40.179 5.407 75.246-11.074 104.232-48.989l-16.39-148.233-162.086 24.873z"/><path d="m468.35 315.684c-107.426 18.726-212.05-87.428-150.69-207.784 39.46-55.06 132.092-38.828 172.474-49.2 0 0 70.6-59.83 116.221-56.024 56.4 4.706 127 50.328 136.654 86.156 58.676-33.937 163-11.047 164.037 107.515 1.502 172.361-348.238 117.737-438.696 119.337z" fill="#6f5490"/><path d="m443.679 319.856c-51.332 0-94.858-22.21-121.779-62.957-30.117-45.586-32.685-105.976-6.39-150.272a2.628 2.628 0 0 1 .2-.29c32.247-40.125 86.762-43.077 130.565-45.449 16.91-.915 31.552-1.708 42.688-4.473 6.642-5.563 72.881-59.966 117.6-56.232 27.063 2.258 58.77 13.844 86.991 31.788 26.171 16.64 44.906 36.275 50.92 53.179 33.153-17.83 76.7-17.433 109.4 1.242 35.457 20.248 55.226 59.289 55.668 109.931.27 31.037-9.28 56.259-28.385 74.967-23.578 23.086-62.189 37.149-118.041 42.989-48.824 5.106-103.793 3.47-156.952 1.888-51.515-1.534-100.174-2.982-137.487 2a189.231 189.231 0 0 1 -24.998 1.689zm24.34-6.65.331 2.478-.331-2.478c37.718-5.031 86.574-3.576 138.3-2.037 103.25 3.074 220.274 6.557 271.346-43.452 18.351-17.969 27.145-41.308 26.883-71.35-.425-48.79-19.3-86.3-53.148-105.633-32.109-18.337-75.164-18.232-107.137.26a2.5 2.5 0 0 1 -3.663-1.514c-4.413-16.377-23-36.3-49.723-53.289-27.567-17.525-58.447-28.833-84.73-31.025-44.06-3.672-113.7 54.847-114.4 55.439a2.513 2.513 0 0 1 -.994.514c-11.681 3-26.755 3.817-44.21 4.762-42.757 2.315-95.961 5.2-126.826 43.451-25.245 42.671-22.7 100.839 6.352 144.81 30.098 45.558 81.838 67.085 141.95 59.064z"/><path d="m412.451 423.464c-9.473-43.139 18.047-85.843 61.473-95.379s86.305 17.715 95.776 60.851-18.055 85.845-61.474 95.378-86.303-17.714-95.775-60.85z" fill="#ffaac3"/><path d="m490.843 488.709c-38.066 0-72.391-26.26-80.834-64.709-9.753-44.418 18.678-88.541 63.379-98.357s89 18.338 98.755 62.756-18.678 88.542-63.378 98.357a83.525 83.525 0 0 1 -17.922 1.953zm-75.95-65.781c9.162 41.726 50.791 68.169 92.8 58.945s68.73-50.675 59.568-92.4-50.792-68.169-92.8-58.945-68.724 50.678-59.567 92.4z"/><path d="m542.155 443.9a2.5 2.5 0 0 1 -2.295-1.5c-.193-.443-19.325-42.5-95.307-66.952a2.5 2.5 0 0 1 1.532-4.76c78.363 25.212 97.584 67.912 98.364 69.712a2.5 2.5 0 0 1 -2.294 3.492z"/><path d="m513.387 175.087s-76.466 69.243-29.875 212.835c20.665 69.978 88.055 151.538 200.635 121.606 88.437-23.311 122.742-107.055 122.742-107.055s36.705 43.972 95.046 15.5c48.4-22.029 62.93-72.906 50.415-110.041-30.851-91.551-138-75.877-153.091-18.465-70.633-128.267-193.785-149.888-285.872-114.38z" fill="#ffaac3"/><path d="m637.294 518.169c-34.3 0-64.844-10.643-91.183-31.841-36.251-29.175-56.516-72.154-67.134-103.072-11.15-32.471-15.179-71.937-11.053-108.276 3.345-29.46 13.638-71.008 43.677-101.643a2.515 2.515 0 0 1 .961-.61c48.35-16.9 100.584-18.579 147.08-4.737a219.029 219.029 0 0 1 75.868 40.282c24.05 19.534 45.256 44.767 63.091 75.057 4.309-11.374 12.355-21.2 23.53-28.657 12.17-8.12 27.552-12.886 43.314-13.419 32.055-1.095 72.367 15.651 89.275 65.881 7.683 22.826 5.15 50.63-6.611 72.562-12.175 22.7-33.365 38.659-61.279 46.135-29.88 8-50.542 1.671-62.614-5.05a61.829 61.829 0 0 1 -16.756-13.481 209.325 209.325 0 0 1 -27.877 42.929c-18.791 22.551-51.241 51.747-99.127 62.771a192.407 192.407 0 0 1 -43.162 5.169zm-122.529-340.915c-48.585 50.036-52.293 142.546-31.059 204.378 14.5 42.227 56.731 131.45 154.155 131.46a184.58 184.58 0 0 0 41.473-4.963c46.53-10.712 78.109-39.139 96.408-61.1 19.848-23.82 28.746-45.288 28.833-45.5a2.5 2.5 0 0 1 4.421-.4c.052.082 5.705 8.7 17.89 15.417 16.114 8.877 36.395 10.418 58.65 4.457 26.546-7.11 46.66-22.21 58.167-43.668 11.13-20.755 13.536-47.043 6.278-68.6-16.032-47.628-54.092-63.5-84.367-62.479-31.136 1.054-57.427 19.087-63.936 43.853a2.5 2.5 0 0 1 -4.593.6c-73.83-130.274-194.129-144.046-282.32-113.455z"/><path d="m868.369 359.3a2.5 2.5 0 0 1 -2.292-1.5c-4.861-11.119-20.857-10.9-21.011-10.888a2.5 2.5 0 1 1 -.112-5c.792-.021 19.516-.273 25.7 13.884a2.5 2.5 0 0 1 -2.289 3.5z"/><path d="m837.722 373.528a2.5 2.5 0 0 1 -2.5-2.435c-.039-1.574-.4-39.061 47.924-83.557a2.5 2.5 0 1 1 3.387 3.678c-46.5 42.818-46.32 79.4-46.312 79.761a2.5 2.5 0 0 1 -2.444 2.552z"/><path d="m555.328 335.841a6.668 6.668 0 1 1 7.948 5.086 6.67 6.67 0 0 1 -7.948-5.086z"/><path d="m561.844 343.583a9.19 9.19 0 0 1 -8.958-7.205 9.168 9.168 0 1 1 10.926 6.992 9.227 9.227 0 0 1 -1.968.213zm-4.074-8.278a4.168 4.168 0 1 0 6.318-4.408 4.169 4.169 0 0 0 -6.318 4.408z"/><path d="m670.4 310.211a6.669 6.669 0 1 1 7.948 5.086 6.67 6.67 0 0 1 -7.948-5.086z"/><path d="m676.892 317.956a9.2 9.2 0 1 1 1.987-.217 9.273 9.273 0 0 1 -1.987.217zm.018-13.347a4.129 4.129 0 0 0 -.892.1 4.172 4.172 0 1 0 1.789 8.149 4.167 4.167 0 0 0 3.172-4.967 4.177 4.177 0 0 0 -4.069-3.282z"/><path d="m687.05 386.571a40.014 40.014 0 1 1 47.669 30.5 40.013 40.013 0 0 1 -47.669-30.5z" fill="#ff6996"/><path d="m507.982 425.577a39.707 39.707 0 1 1 47.305 30.272 39.711 39.711 0 0 1 -47.305-30.272z" fill="#ff6996"/><path d="m604.413 371.635a2.5 2.5 0 0 1 -1.969-4.035c4.614-5.908 17.134-14.748 31.5-5.929a2.5 2.5 0 0 1 -2.616 4.262c-14.119-8.665-24.516 4.2-24.952 4.749a2.5 2.5 0 0 1 -1.963.953z"/><path d="m634.473 435.722c-13.5 0-24.254-7.935-24.766-8.319a2.5 2.5 0 0 1 3-4c.129.1 12.787 9.389 26.719 6.887 8.3-1.492 15.51-6.879 21.424-16.014a2.5 2.5 0 1 1 4.2 2.716c-6.707 10.36-15.045 16.493-24.782 18.227a32.969 32.969 0 0 1 -5.795.503z"/><path d="m641.949 98.216c-15.5 104.933-94.3 202.376-173.6 217.468-1.879-2.532-7.408-3.238-9.034-6.138-23.352-41.654-16.676-120.534 14-151.5 20.029-20.218 168.634-59.83 168.634-59.83z" fill="#6f5490"/><path d="m468.347 318.184a2.5 2.5 0 0 1 -.464-4.956c80.132-15.251 146.642-105.951 162.31-181.238a2.5 2.5 0 1 1 4.9 1.018c-8.224 39.519-29.741 81.89-59.033 116.249-31.809 37.312-69.894 61.775-107.239 68.883a2.508 2.508 0 0 1 -.474.044z"/><path d="m490.131 61.2a2.5 2.5 0 0 1 -.349-4.976c29.2-4.159 46.745-13.732 46.919-13.828a2.5 2.5 0 0 1 2.426 4.372c-.738.411-18.449 10.107-48.64 14.406a2.4 2.4 0 0 1 -.356.026z"/><path d="m201.607 1329.618-49.4.265c-135.426-17.9-184.136-160.3-126.3-288.768 44.098-97.945 126.819-163.886 234.368-117.169 163.267 70.919 154.655 164.335 107.82 276.892-35.834 84.162-90.835 128.125-166.488 128.78z" fill="#92acef"/><path d="m873.229 629.754c112.3 0 194.322 59.363 231.115 86.621 32.285 23.918 210.729 208.789 273.956 291.7 0 0 101.955 150.24-8.693 232.435-280.65 177.022-740.979-610.756-496.378-610.756z" fill="#92acef"/><path d="m1369.609 1243.01a2.5 2.5 0 0 1 -1.493-4.507c44.973-33.409 60.09-81.965 44.932-144.318-11.2-46.059-35.7-83.033-36.781-84.655-65.538-85.915-242.624-268.337-273.412-291.146-34.789-25.774-116.258-86.13-229.626-86.13-.336-.01-24.5-.733-68.465 13.827a2.5 2.5 0 0 1 -1.572-4.746c44.957-14.889 69.126-14.12 70.136-14.08 48.64 0 97.4 11.21 144.83 33.322 40.648 18.95 71.239 41.614 87.674 53.789 34.416 25.5 212.535 210.994 274.456 292.192.028.037.055.074.081.112.257.38 25.877 38.486 37.506 86.207 6.863 28.158 7.6 54.135 2.2 77.208-6.776 28.951-23.255 53.321-48.981 72.432a2.488 2.488 0 0 1 -1.485.493z"/><path d="m1378.3 1008.074c125.862 145.937 79.342 321.677-63.983 321.809-76.93.072-121.4 2.08-220.033.755-21.792-.293-31.023-.888-54.483-.888-75.041-.662-128.118-19.035-147.368-64.689-41.508-78.642 28.755-204.7 122.223-235.523 104.445-34.439 212.179 21.86 265.838 37.126z" fill="#92acef"/><path d="m1158.7 1333.586c-19.093 0-40.189-.123-64.444-.448-15.532-.21-54.879-.117-83.608-.048-11.8.027-22.1.052-28.815.052a2.5 2.5 0 0 1 0-5c6.714 0 17.012-.025 28.8-.052 28.744-.068 68.113-.161 83.687.048 62.233.837 103.682.334 143.766-.15 23.525-.285 47.85-.579 76.23-.605 55.027-.051 98.941-27.084 120.484-74.168 31.926-69.778 9.006-165.361-58.391-243.508a2.5 2.5 0 0 1 3.786-3.266c35.195 40.809 58.96 86.476 68.725 132.066 9.15 42.717 5.839 83.1-9.573 116.788-22.391 48.938-67.961 77.035-125.026 77.088-28.352.026-52.663.32-76.174.6-24.498.301-49.508.603-79.447.603z"/><path d="m892.436 1267.562a2.5 2.5 0 0 1 -2.212-1.334c-17-32.2-16.715-73.839.79-117.248 22.972-56.965 71.2-104.781 122.86-121.816 85.071-28.05 172.7 3.66 230.694 24.644 14.123 5.11 26.32 9.524 36.611 12.451a2.5 2.5 0 1 1 -1.368 4.81c-10.46-2.976-22.733-7.417-36.944-12.559-57.342-20.75-144-52.107-227.428-24.6-50.323 16.593-97.343 63.279-119.788 118.937-16.946 42.021-17.3 82.168-1.006 113.044a2.5 2.5 0 0 1 -2.209 3.668z"/><path d="m265.581 1332.383h-113.37a2.356 2.356 0 0 1 -.325-.022c-28.869-3.78-54.7-13.423-76.766-28.662a163.719 163.719 0 0 1 -50.364-56.113c-15.931-28.772-24.489-63.115-24.75-99.315-.262-36.436 7.91-73.85 23.632-108.2 24.051-52.543 56.776-91.912 94.635-113.851a145.322 145.322 0 0 1 66.174-19.91c24.731-1.219 50.574 3.938 76.824 15.34a2.5 2.5 0 1 1 -1.992 4.586c-92.99-40.394-179.382 2.94-231.094 115.916-31.114 67.972-30.752 145.76.945 203.009 25.781 46.564 68.4 74.992 123.245 82.219h113.206a2.5 2.5 0 0 1 0 5z"/><path d="m287.027 1010.953c-20.61 54.548-67.793 145.1-136.367 117.791-46.221-18.409-46.933-124.837-19.272-194.845 26.4-66.821 64.414-106.673 135.029-121.8 40.6-8.7 56.182 34.424 86.667 57.449-14.461 55.91-38.711 46.577-30.8 81.958 10.69 47.778-35.257 59.447-35.257 59.447z" fill="#ffaac3"/><path d="m176.032 1136.618a67.484 67.484 0 0 1 -26.342-5.57c-21.2-8.928-34.338-33.912-38-72.252-3.195-33.426 1.386-74.038 12.569-111.422 10.48-35.037 28.208-66.1 51.267-89.83 25.189-25.924 56.484-42.492 90.5-47.913 40.475-6.451 62.68 19.721 82.271 42.81 8.266 9.743 16.074 18.945 24.828 25.557a2.5 2.5 0 0 1 .981 1.75c2.355 23.848-16.163 30.414-32.5 36.207-16.668 5.909-31.062 11.012-26.71 31.684 5.387 25.589-2.59 43.261-10.23 53.58a61.536 61.536 0 0 1 -17.335 15.992c-11.064 28.581-40.945 94.9-86 114.093a64.092 64.092 0 0 1 -25.299 5.314zm102.2-322.986a72.514 72.514 0 0 0 -11.425.937c-64.176 10.231-115.677 60.411-137.761 134.238-21.48 71.806-18.953 160.138 22.584 177.633 16.131 6.795 32.191 6.884 47.733.264 43.748-18.634 73.051-84.619 83.619-112.123a2.5 2.5 0 0 1 1.167-1.315c1.449-.767 35.381-19.319 25.849-64.6-5.253-24.953 13.439-31.58 29.932-37.427 15.739-5.58 30.621-10.858 29.287-29.937-8.823-6.873-16.559-15.992-24.736-25.629-17.568-20.703-35.676-42.041-66.246-42.041z"/><path d="m404.512 928.991s29.082-2.321 40.375-34.23c20.079-56.815-104.425-93.844-178.47-82.661z" fill="#ffaac3"/><path d="m404.509 931.491a2.5 2.5 0 0 1 -.2-4.992c1.15-.1 27.637-2.669 38.221-32.572 4.222-11.948 1.788-23.547-7.238-34.47-13-15.738-39.879-29.7-73.742-38.311-32.269-8.2-67.695-10.661-94.761-6.574a2.5 2.5 0 0 1 -.747-4.944c55.326-8.355 143 10.2 173.105 46.644 10.222 12.372 12.946 25.6 8.1 39.322-11.7 33.057-42.227 35.865-42.535 35.889-.069.005-.136.008-.203.008z"/><path d="m385.626 984.767s35.406-1.425 46.7-33.334c20.079-56.816-103.118-97.153-177.157-85.982 0 0-42.995 6.5-64.788 36.313z" fill="#ffaac3"/><path d="m385.623 987.267a2.5 2.5 0 0 1 -.1-5c1.378-.058 33.869-1.781 44.447-31.67 5.732-16.218-4.556-35.254-28.225-52.227-43.636-31.29-137.508-54.546-200.415-5.087a2.5 2.5 0 1 1 -3.091-3.93c35.879-28.21 78.691-31.343 108.284-29 35.735 2.824 72.421 15.518 98.135 33.958 25.609 18.363 36.553 39.488 30.026 57.957-11.723 33.123-48.586 34.984-48.957 35-.035-.001-.069-.001-.104-.001z"/><path d="m233.552 1016.272c32.865-1.919 62.673-.807 78.945 8.651 45.668 26.523 81.9 19.189 93.2-12.72 20.079-56.816-131.266-90.873-180.541-82.533-14.43 2.442-26.169 4.1-40.418 14.158z" fill="#ffaac3"/><path d="m363.465 1043.605c-15.5 0-33.435-5.608-52.224-16.52-15.863-9.221-41.386-13.3-63.515-10.137a2.5 2.5 0 1 1 -.706-4.95c23.153-3.305 49.972 1.021 66.733 10.763 25.47 14.793 49.021 19.439 66.313 13.083 10.987-4.038 19.035-12.5 23.272-24.475 4.342-12.286.327-24.668-11.934-36.8-36.44-36.062-132.718-57.187-180.734-39.654a2.5 2.5 0 1 1 -1.715-4.7c23.5-8.584 60.088-8.705 97.866-.326 37.565 8.332 70.5 23.705 88.1 41.123 13.563 13.422 18.1 27.953 13.131 42.023-4.75 13.423-13.831 22.933-26.261 27.5a52.9 52.9 0 0 1 -18.326 3.07z"/><path d="m946.526 1277.9c97.859 26.518 244.562 31.84 231.649-80.255-9.717-84.355-147.955-104.726-270.649-75.727-30.203 8.222-34.116 127.164 39 155.982z" fill="#ffaac3"/><path d="m1058.011 1296.329c-34.23 0-73.932-5.663-112.138-16.015a2.5 2.5 0 0 1 1.308-4.827c68.191 18.48 163.1 26.921 206.133-10.105 18.2-15.657 25.73-38.352 22.378-67.45-3.2-27.815-20.676-49.6-51.929-64.742-80.4-38.959-232.638-22.624-325.8 34.959a2.5 2.5 0 0 1 -2.629-4.254c94.406-58.351 248.9-74.8 330.608-35.2 32.431 15.715 51.351 39.461 54.716 68.669 3.553 30.847-4.55 55.008-24.084 71.814-20.525 17.657-52.84 26.79-96.047 27.145-.833.002-1.675.006-2.516.006z"/><path d="m790.294 1293.553a2.5 2.5 0 0 1 -2.3-1.524c-6.191-14.566-5.56-28.57 1.874-41.623 13.749-24.141 50.257-44.809 108.51-61.431a667.677 667.677 0 0 1 83.119-17.744 2.5 2.5 0 0 1 .666 4.955c-1.563.21-156.591 21.628-187.952 76.7-6.62 11.625-7.163 24.138-1.615 37.192a2.5 2.5 0 0 1 -2.3 3.479z"/><path d="m917.069 1207.61c-44 4.977-140.817 79.157-176.859 58.817-4.853-2.738-47.358-34.047 56.44-100.4 31.527-20.156 70.632-34.474 110.876-44.1 45.636-8.427 66.96 83.116 9.543 85.683z" fill="#ffaac3"/><path d="m755.629 1272.445c-6.31 0-11.922-1.174-16.648-3.841a29.962 29.962 0 0 1 -13.957-24.4c-.635-23.058 23.01-50.072 70.279-80.292 29.383-18.784 66.944-33.732 111.64-44.429a2.5 2.5 0 0 1 1.164 4.863c-44.152 10.566-81.2 25.3-110.111 43.779-56.908 36.382-68.375 61.378-67.974 75.941a24.9 24.9 0 0 0 11.416 20.18c20.462 11.55 64.629-10.6 103.6-30.148 27.617-13.851 53.7-26.933 71.753-28.975a2.5 2.5 0 1 1 .561 4.969c-17.166 1.941-42.865 14.83-70.073 28.475-33.322 16.714-67.546 33.878-91.65 33.878z"/><path d="m920.639 1232.38s-110.649 54.7-130.206 59.06-48.424 2.222-50.223-25.013c-3.251-49.213 88.011-101.2 180.429-117.864 46.618-11.085 28.701 69.472 0 83.817z" fill="#ffaac3"/><path d="m774.559 1295.691c-8.4 0-18.176-1.553-25.781-7.248-6.715-5.029-10.437-12.38-11.063-21.851-1.584-23.98 18.13-50.055 55.509-73.422 34.531-21.588 80.811-38.743 126.971-47.067a2.5 2.5 0 1 1 .888 4.92c-45.559 8.215-91.2 25.123-125.209 46.386-35.744 22.346-54.626 46.8-53.169 68.853.524 7.949 3.576 14.065 9.07 18.179 9.906 7.418 26.183 7.218 38.114 4.558 19.042-4.243 128.538-58.314 129.642-58.86a2.5 2.5 0 0 1 2.216 4.482c-4.529 2.239-111.145 54.885-130.77 59.259a78.24 78.24 0 0 1 -16.418 1.811z"/><path d="m1058.011 1296.329c-34.23 0-73.932-5.663-112.138-16.015a2.5 2.5 0 0 1 1.308-4.827c68.192 18.479 163.1 26.919 206.133-10.105 18.2-15.657 25.73-38.352 22.378-67.45-2.527-21.931-14.1-40.278-34.407-54.529-23.921-16.791-59.294-27.319-102.293-30.447-41.364-3.008-86.622.931-130.891 11.394a2.5 2.5 0 1 1 -1.151-4.866c44.758-10.578 90.543-14.558 132.4-11.515 43.9 3.193 80.142 14.031 104.8 31.342 21.523 15.107 33.8 34.637 36.5 58.048 3.553 30.847-4.55 55.008-24.084 71.814-20.525 17.657-52.84 26.79-96.047 27.145-.825.007-1.667.011-2.508.011z"/><path d="m946.526 1277.9s-137.794 51.983-156.093 13.54c-27.793-58.388 74.878-100.856 191.4-117.732 37.077-5.965-44.228 70.73-35.307 104.192z" fill="#ffaac3"/><path d="m826.387 1308.111c-20.47 0-33.264-5.205-38.211-15.6-6.621-13.909-6.448-27.558.513-40.568 19.176-35.833 91.243-66 192.78-80.713a2.5 2.5 0 0 1 .717 4.95c-46.249 6.7-87.958 17.05-120.617 29.937-35.4 13.969-59.077 30.632-68.471 48.186-6.171 11.531-6.308 23.664-.408 36.059 14.2 29.826 115.225-.573 152.954-14.8a2.5 2.5 0 1 1 1.765 4.677c-.346.131-35.036 13.153-71.523 21.287q-29.542 6.586-49.499 6.585z"/></svg>