<svg width="712" height="851" viewBox="0 0 712 851" fill="none" xmlns="http://www.w3.org/2000/svg">
<g clip-path="url(#clip0_148_4654)">
<path d="M13.7112 666.915C13.1256 666.576 12.6993 665.998 12.4943 665.263C12.2893 664.529 12.3165 663.677 12.5717 662.832C12.6806 662.476 15.2412 654.037 20.5617 639.962C20.9542 638.924 21.6609 638.01 22.5263 637.421C23.3918 636.832 24.3451 636.616 25.1765 636.821C26.0079 637.025 26.6493 637.634 26.9597 638.513C27.2701 639.391 27.2239 640.468 26.8314 641.506C21.6503 655.195 19.1034 663.596 19.0784 663.679C18.8906 664.301 18.5854 664.899 18.1874 665.424C17.7893 665.949 17.3096 666.387 16.7871 666.702C16.2646 667.017 15.714 667.201 15.1796 667.238C14.6453 667.275 14.1422 667.164 13.7112 666.915ZM30.5069 622.145C29.8562 621.768 29.4047 621.096 29.2328 620.248C29.0609 619.4 29.1798 618.431 29.5683 617.515C32.7013 610.123 36.0263 602.664 39.4463 595.357C39.9197 594.345 40.6869 593.496 41.579 592.997C42.4712 592.499 43.4152 592.391 44.2034 592.698C44.9917 593.005 45.5596 593.702 45.7822 594.635C46.0048 595.568 45.8638 596.661 45.3904 597.674C42.027 604.857 38.7595 612.187 35.6796 619.457C35.4417 620.018 35.1101 620.542 34.7079 620.992C34.3057 621.443 33.8425 621.808 33.3505 622.064C32.8584 622.319 32.3493 622.459 31.8586 622.472C31.3678 622.486 30.9072 622.373 30.5087 622.142L30.5069 622.145ZM50.9297 578.532C50.2326 578.128 49.7659 577.386 49.6242 576.457C49.4824 575.527 49.6763 574.48 50.1665 573.527C53.8935 566.283 57.7818 559.067 61.7287 552.083C62.28 551.107 63.1008 550.334 64.0107 549.934C64.9205 549.533 65.8449 549.537 66.5805 549.946L66.6151 549.966C67.3378 550.383 67.8126 551.162 67.9368 552.135C68.0609 553.108 67.8244 554.196 67.2783 555.164C63.4045 562.022 59.5844 569.107 55.9249 576.221C55.6712 576.715 55.3456 577.168 54.9665 577.556C54.5875 577.944 54.1624 578.259 53.7156 578.482C53.2688 578.706 52.8091 578.834 52.3626 578.859C51.9162 578.884 51.4919 578.805 51.1138 578.628C51.0503 578.599 50.9894 578.566 50.9297 578.532ZM74.6981 536.51C74.6581 536.487 74.6196 536.464 74.5788 536.441C74.2294 536.212 73.9412 535.892 73.7308 535.5C73.5205 535.107 73.3919 534.65 73.3526 534.154C73.3133 533.658 73.364 533.134 73.5018 532.61C73.6395 532.086 73.8617 531.574 74.1556 531.103C78.4791 524.14 82.9578 517.271 87.4679 510.685C88.1027 509.777 88.9697 509.112 89.8811 508.835C90.7925 508.557 91.6749 508.69 92.3373 509.203C92.9996 509.716 93.3886 510.569 93.42 511.576C93.4513 512.584 93.1226 513.666 92.5049 514.587C88.0894 521.037 83.7012 527.767 79.4669 534.586C78.8931 535.512 78.0767 536.229 77.1881 536.587C76.2994 536.946 75.4073 536.918 74.6981 536.51ZM101.934 496.785C101.781 496.696 101.637 496.591 101.505 496.471C101.195 496.185 100.954 495.816 100.795 495.385C100.636 494.953 100.563 494.467 100.58 493.955C100.596 493.442 100.702 492.913 100.892 492.398C101.082 491.883 101.351 491.391 101.685 490.952C106.625 484.44 111.72 478.079 116.826 472.042C117.179 471.617 117.587 471.259 118.025 470.988C118.464 470.716 118.924 470.537 119.38 470.46C119.836 470.384 120.278 470.412 120.681 470.542C121.084 470.672 121.44 470.902 121.728 471.219C122.016 471.536 122.231 471.934 122.359 472.388C122.488 472.843 122.528 473.346 122.477 473.869C122.426 474.391 122.286 474.922 122.064 475.432C121.842 475.941 121.542 476.419 121.183 476.837C116.201 482.727 111.229 488.934 106.405 495.294C105.805 496.084 105.027 496.667 104.209 496.939C103.391 497.211 102.586 497.155 101.936 496.781L101.934 496.785ZM132.748 460.409C132.315 460.159 131.967 459.776 131.731 459.292C131.496 458.808 131.381 458.236 131.395 457.623C131.408 457.01 131.551 456.373 131.811 455.764C132.071 455.155 132.441 454.591 132.89 454.119C138.436 448.286 144.142 442.649 149.85 437.366C150.245 436.988 150.683 436.689 151.139 436.486C151.595 436.282 152.061 436.179 152.507 436.181C152.954 436.184 153.374 436.292 153.741 436.5C154.109 436.708 154.417 437.011 154.648 437.392C154.879 437.773 155.028 438.223 155.086 438.718C155.144 439.212 155.11 439.74 154.987 440.27C154.863 440.801 154.652 441.323 154.366 441.807C154.079 442.291 153.724 442.727 153.32 443.089C147.773 448.225 142.225 453.705 136.831 459.377C136.227 460.011 135.507 460.452 134.774 460.637C134.04 460.822 133.332 460.74 132.75 460.405L132.748 460.409ZM384.523 592.011C384.449 591.969 384.375 591.926 384.307 591.87L383.803 591.498C378.863 587.838 374.621 583.193 371.215 577.714C370.748 576.961 370.614 575.943 370.844 574.884C371.073 573.825 371.648 572.813 372.44 572.069C373.232 571.324 374.178 570.91 375.069 570.916C375.96 570.922 376.723 571.349 377.191 572.102C380.249 577.023 384.058 581.196 388.494 584.483L388.961 584.827C389.629 585.308 390.039 586.125 390.104 587.106C390.169 588.087 389.884 589.155 389.309 590.086C388.734 591.017 387.914 591.738 387.022 592.096C386.129 592.455 385.234 592.424 384.524 592.009L384.523 592.011ZM400.226 601.014C399.52 600.604 399.052 599.848 398.917 598.903C398.782 597.958 398.992 596.896 399.503 595.938C400.013 594.98 400.785 594.199 401.659 593.757C402.532 593.316 403.44 593.248 404.193 593.567C409.561 595.871 415.273 597.435 421.236 598.234C421.668 598.284 422.066 598.437 422.405 598.685C422.745 598.933 423.021 599.271 423.216 599.679C423.411 600.088 423.522 600.558 423.542 601.064C423.562 601.569 423.491 602.1 423.333 602.624C423.175 603.149 422.933 603.657 422.622 604.12C422.31 604.583 421.935 604.991 421.518 605.32C421.101 605.65 420.65 605.894 420.192 606.039C419.734 606.185 419.277 606.228 418.848 606.167C412.426 605.309 406.274 603.626 400.494 601.146C400.401 601.102 400.313 601.058 400.23 601.01L400.226 601.014ZM437.163 605.471C436.565 605.126 436.133 604.531 435.932 603.777C435.732 603.022 435.774 602.149 436.052 601.289C436.329 600.429 436.828 599.629 437.472 599.011C438.116 598.393 438.87 597.991 439.62 597.864C445.866 596.832 452.172 594.776 458.345 591.759C459.245 591.324 460.174 591.285 460.928 591.651C461.683 592.017 462.202 592.759 462.372 593.715C462.543 594.67 462.351 595.762 461.838 596.752C461.325 597.742 460.534 598.549 459.636 598.998C452.809 602.337 445.834 604.613 438.926 605.757C438.285 605.864 437.675 605.763 437.164 605.468L437.163 605.471ZM364.652 560.339C364.04 559.987 363.602 559.37 363.411 558.589C361.74 551.651 360.776 544.339 360.535 536.774C360.498 535.759 360.827 534.667 361.451 533.738C362.074 532.809 362.94 532.119 363.859 531.82C364.778 531.521 365.673 531.637 366.349 532.143C367.025 532.649 367.425 533.503 367.463 534.518C367.684 541.541 368.575 548.331 370.122 554.773C370.302 555.502 370.26 556.338 370 557.162C369.741 557.986 369.278 558.759 368.676 559.372C368.074 559.984 367.362 560.407 366.641 560.58C365.92 560.754 365.224 560.67 364.652 560.339ZM167.014 428.715C166.543 428.442 166.173 428.013 165.94 427.468C165.707 426.923 165.618 426.281 165.682 425.604C165.747 424.926 165.962 424.236 166.307 423.599C166.653 422.963 167.117 422.401 167.655 421.968C173.734 417.075 179.974 412.418 186.209 408.128C187.067 407.555 188.008 407.35 188.829 407.555C189.65 407.76 190.284 408.36 190.596 409.224C190.908 410.089 190.873 411.15 190.498 412.178C190.122 413.207 189.437 414.121 188.59 414.724C182.549 418.886 176.497 423.4 170.603 428.144C170.026 428.607 169.387 428.906 168.753 429.007C168.12 429.108 167.518 429.007 167.014 428.715ZM475.457 586.441C475 586.177 474.639 585.765 474.404 585.243C474.17 584.721 474.071 584.105 474.116 583.451C474.161 582.797 474.348 582.126 474.662 581.498C474.975 580.87 475.404 580.305 475.91 579.855C481.384 574.988 486.329 569.288 490.549 562.982C491.173 562.06 492.036 561.377 492.95 561.081C493.864 560.785 494.755 560.9 495.429 561.402C496.103 561.903 496.505 562.751 496.547 563.758C496.589 564.767 496.269 565.854 495.655 566.783C490.923 573.857 485.376 580.251 479.236 585.711C478.646 586.237 477.974 586.586 477.303 586.716C476.632 586.845 475.99 586.75 475.457 586.441ZM362.668 517.017C362.194 516.745 361.822 516.314 361.588 515.767C361.353 515.22 361.265 514.574 361.331 513.894C362.095 506.21 363.218 498.477 364.696 490.728C364.795 490.204 364.98 489.683 365.242 489.193C365.503 488.704 365.835 488.257 366.22 487.876C366.604 487.496 367.032 487.19 367.481 486.977C367.929 486.763 368.388 486.646 368.833 486.631C369.277 486.617 369.698 486.706 370.07 486.893C370.443 487.081 370.761 487.362 371.005 487.722C371.249 488.082 371.415 488.514 371.494 488.992C371.573 489.471 371.562 489.986 371.464 490.51C370.038 497.97 368.955 505.415 368.22 512.812C368.152 513.512 367.924 514.226 367.557 514.88C367.19 515.533 366.699 516.103 366.134 516.531C365.568 516.959 364.949 517.229 364.339 517.314C363.729 517.399 363.15 517.295 362.663 517.014L362.668 517.017ZM204.161 403.151C203.649 402.854 203.257 402.372 203.03 401.759C202.804 401.147 202.751 400.428 202.878 399.685C203.006 398.941 203.308 398.202 203.751 397.552C204.194 396.902 204.761 396.366 205.386 396.005C211.826 392.286 218.439 388.827 225.031 385.722C225.484 385.499 225.95 385.373 226.401 385.353C226.852 385.333 227.279 385.42 227.658 385.606C228.037 385.793 228.359 386.078 228.607 386.442C228.854 386.807 229.022 387.245 229.099 387.73C229.177 388.215 229.163 388.739 229.059 389.269C228.954 389.799 228.761 390.326 228.491 390.819C228.221 391.312 227.878 391.76 227.485 392.138C227.091 392.516 226.653 392.816 226.197 393.02C219.812 396.026 213.407 399.38 207.167 402.982C206.653 403.279 206.115 403.449 205.594 403.478C205.072 403.507 204.582 403.395 204.161 403.151ZM501.763 547.09C501.147 546.734 500.708 546.115 500.516 545.329C500.324 544.544 500.39 543.639 500.703 542.759C503.211 535.656 504.824 528.413 505.485 521.282C505.585 520.234 506.044 519.172 506.761 518.328C507.478 517.485 508.395 516.93 509.308 516.785C510.222 516.641 511.059 516.918 511.635 517.557C512.21 518.195 512.477 519.143 512.377 520.191C511.638 528.129 509.841 536.192 507.048 544.099C506.836 544.695 506.518 545.261 506.117 545.752C505.716 546.244 505.243 546.649 504.733 546.937C504.224 547.225 503.692 547.389 503.177 547.415C502.662 547.441 502.178 547.33 501.762 547.089L501.763 547.09ZM371.095 471.463C370.533 471.139 370.117 470.594 369.903 469.901C369.688 469.208 369.686 468.4 369.895 467.586C371.788 460.227 373.992 452.489 376.445 444.591C376.598 444.06 376.837 443.545 377.148 443.075C377.458 442.605 377.835 442.19 378.254 441.854C378.674 441.518 379.128 441.269 379.591 441.12C380.053 440.971 380.515 440.927 380.947 440.989C381.38 441.05 381.776 441.218 382.111 441.48C382.445 441.743 382.713 442.096 382.897 442.518C383.082 442.94 383.179 443.423 383.184 443.938C383.189 444.453 383.101 444.99 382.925 445.517C380.522 453.251 378.367 460.82 376.516 468.015C376.351 468.657 376.059 469.282 375.666 469.835C375.272 470.389 374.788 470.855 374.255 471.193C373.722 471.532 373.156 471.733 372.606 471.78C372.055 471.827 371.536 471.717 371.092 471.462L371.095 471.463ZM243.137 384.791C242.58 384.471 242.166 383.934 241.949 383.25C241.732 382.567 241.722 381.769 241.921 380.963C242.121 380.156 242.519 379.379 243.064 378.734C243.609 378.088 244.276 377.605 244.975 377.348C251.568 374.912 258.322 372.741 265.045 370.9C265.959 370.658 266.831 370.831 267.47 371.38C268.11 371.929 268.466 372.81 268.461 373.832C268.456 374.853 268.089 375.933 267.442 376.834C266.795 377.736 265.919 378.388 265.005 378.647C258.478 380.435 251.925 382.541 245.528 384.906C244.671 385.225 243.819 385.184 243.137 384.791ZM282.679 373.922C282.084 373.58 281.654 372.989 281.452 372.24C281.25 371.491 281.288 370.623 281.559 369.767C281.831 368.911 282.322 368.112 282.959 367.492C283.595 366.871 284.343 366.461 285.09 366.324C291.638 365.122 298.33 364.18 304.982 363.527C305.436 363.475 305.873 363.528 306.266 363.683C306.658 363.838 307 364.092 307.271 364.43C307.542 364.768 307.736 365.184 307.843 365.652C307.949 366.121 307.966 366.633 307.892 367.16C307.818 367.686 307.655 368.216 307.411 368.719C307.168 369.222 306.85 369.688 306.476 370.089C306.101 370.491 305.677 370.82 305.229 371.058C304.781 371.296 304.317 371.437 303.865 371.475C297.384 372.113 290.864 373.03 284.493 374.201C283.833 374.323 283.203 374.227 282.679 373.922ZM506.284 502.524C505.579 502.119 505.109 501.367 504.972 500.425C503.963 493.704 502.283 487.312 499.961 481.36C499.787 480.933 499.699 480.448 499.704 479.933C499.708 479.419 499.804 478.884 499.986 478.361C500.168 477.838 500.433 477.338 500.764 476.888C501.095 476.439 501.487 476.049 501.916 475.743C502.345 475.437 502.803 475.22 503.263 475.105C503.724 474.99 504.177 474.978 504.596 475.072C505.016 475.166 505.393 475.362 505.707 475.65C506.021 475.938 506.264 476.312 506.423 476.749C508.927 483.169 510.739 490.062 511.827 497.31C511.934 498.044 511.833 498.855 511.538 499.637C511.243 500.42 510.766 501.138 510.17 501.7C509.574 502.261 508.885 502.641 508.193 502.788C507.501 502.935 506.838 502.845 506.289 502.527L506.284 502.524ZM385.104 426.105C384.489 425.75 384.05 425.132 383.857 424.347C383.665 423.563 383.73 422.659 384.041 421.779C386.636 414.457 389.473 406.854 392.475 399.178C392.673 398.661 392.95 398.17 393.292 397.733C393.633 397.296 394.032 396.922 394.465 396.633C394.898 396.343 395.356 396.144 395.814 396.047C396.271 395.95 396.719 395.956 397.13 396.066C397.542 396.176 397.909 396.387 398.211 396.687C398.513 396.987 398.744 397.37 398.89 397.814C399.036 398.258 399.094 398.754 399.061 399.273C399.029 399.793 398.906 400.325 398.699 400.84C395.741 408.404 392.945 415.896 390.39 423.108C390.021 424.151 389.332 425.082 388.476 425.695C387.619 426.308 386.665 426.553 385.823 426.377C385.567 426.323 385.326 426.232 385.104 426.105ZM321.723 370.033C321.094 369.671 320.65 369.033 320.464 368.225C320.278 367.417 320.362 366.489 320.701 365.594C321.041 364.699 321.616 363.893 322.33 363.309C323.044 362.725 323.855 362.398 324.626 362.384C328.772 362.306 332.988 362.332 337.156 362.461C337.206 362.462 337.257 362.465 337.308 362.469C337.408 362.478 339.818 362.69 344.084 363.364C344.929 363.511 345.604 364.061 345.964 364.896C346.323 365.731 346.338 366.783 346.004 367.824C345.67 368.865 345.015 369.811 344.181 370.457C343.347 371.103 342.401 371.397 341.548 371.276C337.881 370.692 335.625 370.473 335.21 370.432C331.161 370.31 327.068 370.285 323.043 370.358C322.562 370.369 322.111 370.257 321.719 370.031L321.723 370.033ZM492.325 465.378C491.98 465.178 491.689 464.894 491.466 464.54C490.122 462.415 488.661 460.285 487.124 458.208C484.987 455.323 482.755 452.462 480.488 449.708C480.216 449.377 480.018 448.969 479.907 448.508C479.795 448.047 479.771 447.541 479.837 447.02C479.97 445.968 480.458 444.916 481.196 444.096C481.933 443.276 482.858 442.755 483.768 442.648C484.678 442.541 485.498 442.856 486.047 443.525C488.371 446.348 490.659 449.279 492.848 452.237C494.46 454.422 495.999 456.659 497.413 458.896C497.829 459.552 497.99 460.417 497.868 461.342C497.746 462.267 497.35 463.194 496.747 463.962C496.144 464.731 495.372 465.293 494.565 465.551C493.758 465.81 492.966 465.749 492.326 465.379L492.325 465.378ZM358.858 374.73C358.178 374.338 357.715 373.625 357.559 372.729C357.403 371.832 357.565 370.815 358.013 369.874C358.462 368.933 359.165 368.135 359.987 367.633C360.809 367.132 361.692 366.964 362.465 367.16C368.379 368.646 374.371 370.394 380.274 372.358C380.678 372.486 381.035 372.715 381.324 373.03C381.613 373.346 381.829 373.742 381.959 374.195C382.089 374.649 382.131 375.152 382.082 375.674C382.033 376.196 381.894 376.727 381.673 377.237C381.452 377.747 381.154 378.225 380.796 378.645C380.438 379.064 380.027 379.415 379.586 379.679C379.145 379.943 378.684 380.114 378.229 380.182C377.774 380.249 377.335 380.213 376.935 380.074C371.15 378.15 365.277 376.437 359.483 374.982C359.261 374.926 359.052 374.842 358.858 374.73ZM468.764 436.501C468.574 436.392 468.4 436.256 468.245 436.097C464.038 431.813 459.585 427.647 455.007 423.715C454.688 423.441 454.437 423.083 454.267 422.659C454.097 422.235 454.012 421.755 454.016 421.246C454.021 420.737 454.115 420.208 454.293 419.691C454.471 419.174 454.731 418.677 455.056 418.23C455.381 417.784 455.765 417.395 456.188 417.087C456.61 416.778 457.062 416.557 457.517 416.434C457.972 416.311 458.422 416.29 458.841 416.372C459.26 416.453 459.639 416.636 459.958 416.909C464.644 420.929 469.205 425.193 473.506 429.577C474.066 430.146 474.365 430.993 474.345 431.956C474.324 432.919 473.987 433.929 473.397 434.79C472.807 435.651 472.008 436.302 471.152 436.617C470.297 436.933 469.447 436.89 468.766 436.497L468.764 436.501ZM393.58 386.263C392.873 385.856 392.403 385.102 392.266 384.158C392.129 383.214 392.336 382.153 392.845 381.194C393.353 380.235 394.124 379.452 394.996 379.008C395.869 378.564 396.777 378.492 397.532 378.809C398.92 379.387 400.305 379.978 401.688 380.583C401.377 380.096 401.206 379.489 401.191 378.823C401.176 378.156 401.318 377.453 401.602 376.782C404.691 369.493 407.966 362.027 411.336 354.592C411.564 354.088 411.867 353.618 412.229 353.208C412.591 352.798 413.003 352.456 413.443 352.202C413.883 351.948 414.342 351.786 414.793 351.727C415.244 351.667 415.679 351.711 416.073 351.855C416.467 351.999 416.812 352.241 417.089 352.567C417.365 352.893 417.568 353.297 417.685 353.755C417.802 354.213 417.832 354.716 417.771 355.237C417.711 355.757 417.563 356.284 417.335 356.788C414.002 364.14 410.765 371.521 407.713 378.725C407.382 379.506 406.872 380.21 406.251 380.743C405.629 381.277 404.925 381.615 404.23 381.714C407.606 383.236 410.94 384.832 414.198 386.483C414.573 386.67 414.893 386.951 415.138 387.312C415.384 387.673 415.551 388.106 415.63 388.586C415.709 389.066 415.699 389.584 415.599 390.109C415.499 390.635 415.312 391.158 415.049 391.648C414.785 392.139 414.451 392.587 414.064 392.967C413.678 393.347 413.247 393.652 412.796 393.864C412.346 394.075 411.885 394.19 411.439 394.201C410.994 394.211 410.574 394.118 410.202 393.926C404.907 391.243 399.409 388.711 393.86 386.401C393.764 386.361 393.672 386.315 393.583 386.263L393.58 386.263ZM441.066 412.703C440.995 412.662 440.923 412.621 440.858 412.568C436.061 409.101 431.027 405.76 425.896 402.642C425.177 402.205 424.714 401.403 424.61 400.412C424.506 399.422 424.77 398.324 425.342 397.361C425.915 396.397 426.75 395.647 427.663 395.275C428.577 394.902 429.494 394.939 430.214 395.376C435.454 398.56 440.595 401.972 445.495 405.514C446.163 405.995 446.572 406.811 446.638 407.791C446.704 408.771 446.42 409.838 445.847 410.768C445.273 411.699 444.455 412.42 443.564 412.781C442.673 413.141 441.778 413.113 441.067 412.702L441.066 412.703ZM422.443 337.475C421.762 337.081 421.3 336.364 421.147 335.463C420.994 334.563 421.161 333.543 421.614 332.601C425.211 325.135 428.851 317.799 432.436 310.798C432.95 309.81 433.742 309.005 434.639 308.558C435.536 308.111 436.466 308.059 437.227 308.411C437.987 308.764 438.516 309.494 438.699 310.442C438.882 311.39 438.704 312.48 438.203 313.474C434.66 320.395 431.06 327.648 427.5 335.036C427.244 335.567 426.905 336.056 426.504 336.471C426.103 336.887 425.65 337.221 425.173 337.451C424.697 337.681 424.208 337.802 423.737 337.807C423.266 337.812 422.825 337.7 422.44 337.479L422.443 337.475ZM444.501 294.325C443.785 293.912 443.312 293.144 443.182 292.184C443.052 291.224 443.275 290.147 443.805 289.183C445.306 286.441 446.95 283.523 448.689 280.512C450.996 276.515 453.483 272.332 456.081 268.083C456.666 267.126 457.509 266.389 458.424 266.033C459.34 265.677 460.253 265.732 460.964 266.185C461.674 266.638 462.123 267.452 462.211 268.449C462.3 269.446 462.022 270.543 461.437 271.5C458.888 275.671 456.451 279.774 454.191 283.688C452.494 286.627 450.892 289.471 449.43 292.139C448.891 293.121 448.079 293.907 447.172 294.324C446.265 294.742 445.337 294.756 444.592 294.365L444.501 294.325ZM469.592 253.09C469.52 253.048 469.447 253.006 469.38 252.953C468.698 252.457 468.288 251.611 468.24 250.599C468.193 249.588 468.512 248.495 469.127 247.561C473.472 240.963 478.06 234.213 482.764 227.499C483.405 226.584 484.282 225.917 485.202 225.645C486.121 225.373 487.008 225.519 487.667 226.05C488.326 226.58 488.703 227.453 488.716 228.475C488.728 229.498 488.375 230.587 487.734 231.502C483.09 238.128 478.563 244.787 474.277 251.296C473.693 252.183 472.888 252.86 472.02 253.193C471.152 253.526 470.285 253.491 469.593 253.094L469.592 253.09ZM497.195 213.646C496.799 213.418 496.473 213.078 496.239 212.651C496.006 212.224 495.871 211.718 495.843 211.17C495.815 210.621 495.896 210.042 496.079 209.472C496.262 208.902 496.543 208.355 496.903 207.868C501.619 201.491 506.527 195.022 511.489 188.638C512.171 187.76 513.071 187.151 513.989 186.947C514.907 186.743 515.769 186.959 516.385 187.548C517 188.138 517.319 189.052 517.272 190.09C517.224 191.128 516.813 192.205 516.131 193.083C511.223 199.396 506.37 205.795 501.707 212.1C501.109 212.909 500.326 213.51 499.498 213.794C498.671 214.078 497.854 214.027 497.196 213.649L497.195 213.646ZM526.609 175.789C526.414 175.677 526.236 175.537 526.077 175.372C525.783 175.068 525.559 174.682 525.42 174.238C525.28 173.794 525.227 173.299 525.264 172.782C525.301 172.265 525.427 171.737 525.635 171.226C525.842 170.716 526.128 170.234 526.475 169.808C531.477 163.665 536.641 157.458 541.824 151.361C542.542 150.536 543.452 149.997 544.356 149.862C545.26 149.726 546.086 150.005 546.656 150.638C547.226 151.27 547.494 152.206 547.401 153.242C547.309 154.279 546.864 155.333 546.162 156.177C541.03 162.215 535.915 168.361 530.961 174.446C530.357 175.188 529.596 175.725 528.804 175.97C528.012 176.214 527.237 176.15 526.609 175.789ZM557.496 139.448C557.073 139.205 556.731 138.834 556.496 138.366C556.261 137.898 556.139 137.345 556.141 136.749C556.142 136.154 556.267 135.532 556.504 134.933C556.742 134.334 557.087 133.773 557.512 133.294C562.742 127.392 568.126 121.438 573.508 115.605C573.875 115.183 574.297 114.831 574.748 114.571C575.198 114.311 575.669 114.148 576.13 114.093C576.592 114.037 577.035 114.09 577.434 114.247C577.833 114.405 578.179 114.665 578.451 115.011C578.723 115.356 578.917 115.781 579.019 116.26C579.122 116.739 579.132 117.262 579.048 117.797C578.964 118.332 578.789 118.869 578.532 119.376C578.276 119.882 577.944 120.348 577.555 120.744C572.217 126.532 566.885 132.428 561.7 138.277C561.096 138.96 560.357 139.444 559.597 139.656C558.837 139.867 558.099 139.794 557.496 139.448Z" fill="#262103"/>
</g>
<defs>
<clipPath id="clip0_148_4654">
<rect width="383.152" height="760.361" fill="white" transform="translate(380.181 0.508301) rotate(30)"/>
</clipPath>
</defs>
</svg>
