<svg xmlns="http://www.w3.org/2000/svg" xmlns:xlink="http://www.w3.org/1999/xlink" width="318.444" height="152.665" enable-background="new 0 0 318.444 152.665" viewBox="0 0 318.444 152.665"><linearGradient id="a" x1="43.718" x2="316.242" y1="34.894" y2="34.894" gradientUnits="userSpaceOnUse"><stop offset="0" stop-color="#a1c3fc"/><stop offset="1" stop-color="#81aef2"/></linearGradient><path fill="#89b3f4" d="m47.49 75.63v73.698c0 1.511 1.61 2.476 2.943 1.764l187.766-100.358z"/><path fill="#78a9ef" d="m316.377 39.461-276.728 40.429c4.507-2.003 6.615-7.35 4.41-12.449l271.646-32.794c1.458-.187 2.747.954 2.739 2.424-.007 1.197-.884 2.211-2.067 2.39z"/><path fill="#a1c3fc" d="m38.049 81.116-37.178 47.421c-2.417 3.082.578 7.442 4.322 6.292l310.673-95.429-275.248 40.226c-1.016.149-1.936.682-2.569 1.49z"/><path fill="url(#a)" d="m43.917 64.554 20.015-61.786c.598-1.847 2.436-2.997 4.358-2.729l247.951 34.605-268 35.109c-2.913.381-5.23-2.404-4.324-5.199z"/></svg>