<svg width="934" height="535" viewBox="0 0 934 535" fill="none" xmlns="http://www.w3.org/2000/svg">
<g clip-path="url(#clip0_148_4670)">
<path d="M5.96973 3.41943H928.031V531.581H5.96973V3.41943Z" fill="#AAC6FC"/>
<path d="M928.031 535H5.96987C5.18376 535.004 4.40399 534.919 3.67619 534.749C2.9484 534.579 2.28721 534.327 1.73131 534.008C1.17542 533.69 0.736002 533.311 0.438771 532.894C0.141541 532.477 -0.00752697 532.031 0.000292429 531.581V3.41933C-0.00752697 2.96904 0.141541 2.52238 0.438771 2.1055C0.736002 1.68861 1.17542 1.30988 1.73131 0.991461C2.28721 0.673044 2.9484 0.421341 3.67619 0.251086C4.40399 0.0808314 5.18376 -0.00455563 5.96987 -7.66359e-05H928.031C928.817 -0.00455563 929.597 0.0808314 930.324 0.251086C931.052 0.421341 931.713 0.673044 932.269 0.991461C932.825 1.30988 933.265 1.68861 933.562 2.1055C933.859 2.52238 934.008 2.96904 934 3.41933V531.581C934.008 532.031 933.859 532.477 933.562 532.894C933.265 533.311 932.825 533.69 932.269 534.008C931.713 534.327 931.052 534.579 930.324 534.749C929.597 534.919 928.817 535.004 928.031 535V535ZM11.9394 528.161H922.061V6.83873H11.9394V528.161Z" fill="#383A48"/>
<path d="M5.96973 3.41943H928.031V98.4789H5.96973V3.41943Z" fill="#F3F6E6"/>
<path d="M928.031 101.898H5.96987C5.18376 101.903 4.40399 101.817 3.67619 101.647C2.9484 101.477 2.28721 101.225 1.73131 100.907C1.17542 100.588 0.736002 100.209 0.438771 99.7926C0.141541 99.3757 -0.00752697 98.929 0.000292429 98.4788V3.41933C-0.00752697 2.96904 0.141541 2.52238 0.438771 2.1055C0.736002 1.68861 1.17542 1.30988 1.73131 0.991461C2.28721 0.673044 2.9484 0.421341 3.67619 0.251086C4.40399 0.0808313 5.18376 -0.00455563 5.96987 -7.66359e-05H928.031C928.817 -0.00455563 929.597 0.0808313 930.324 0.251086C931.052 0.421341 931.713 0.673044 932.269 0.991461C932.825 1.30988 933.265 1.68861 933.562 2.1055C933.859 2.52238 934.008 2.96904 934 3.41933V98.4788C933.996 99.3848 933.365 100.253 932.247 100.894C931.128 101.534 929.612 101.895 928.031 101.898V101.898ZM11.9394 95.0594H922.061V6.83873H11.9394V95.0594Z" fill="#383A48"/>
</g>
<defs>
<clipPath id="clip0_148_4670">
<rect width="934" height="535" fill="white"/>
</clipPath>
</defs>
</svg>
