<svg height="783" viewBox="0 0 782.3 782.3" width="783" xmlns="http://www.w3.org/2000/svg"><path d="m5 5h772.3v772.3h-772.3z" fill="#aac6fc"/><path d="m777.3 782.3h-772.3a4.951 4.951 0 0 1 -5-5v-772.3a4.951 4.951 0 0 1 5-5h772.3a4.951 4.951 0 0 1 5 5v772.3a4.951 4.951 0 0 1 -5 5zm-767.3-10h762.3v-762.3h-762.3z" fill="#383a48"/><path d="m5 5h772.3v139h-772.3z" fill="#f3f6e6"/><path d="m777.3 149h-772.3a4.951 4.951 0 0 1 -5-5v-139a4.951 4.951 0 0 1 5-5h772.3a4.951 4.951 0 0 1 5 5v139a5.015 5.015 0 0 1 -5 5zm-767.3-10h762.3v-129h-762.3z" fill="#383a48"/></svg>