<svg enable-background="new 0 0 800 800" height="800" viewBox="0 0 800 800" width="800" xmlns="http://www.w3.org/2000/svg"><path d="m485.881 383.753 86.809 97.532h106.213v-34.213h-94.979l-71.489-84.766z" fill="#ffccb6"/><path d="m678.902 483.889h-106.213c-.743 0-1.45-.317-1.944-.873l-86.808-97.532c-.474-.531-.709-1.234-.65-1.943.059-.71.405-1.365.959-1.812l26.553-21.446c1.102-.89 2.711-.735 3.626.347l70.709 83.841h93.769c1.438 0 2.604 1.166 2.604 2.604v34.213c-.001 1.435-1.167 2.601-2.605 2.601zm-105.045-5.207h102.441v-29.006h-92.375c-.768 0-1.495-.339-1.99-.925l-69.846-82.817-22.445 18.129z" fill="#000008"/><path d="m674.179 452.817s.678-21.913 23.936-29.106c18.574-5.745 31.596 2.106 35.234 8.617 7.922 14.177-6.356 22.86-15.702 14.553-8.617-7.66-22.787.574-18.192 13.979 4.358 12.712 27 21.255 29.489-.383 1.58-13.73 18-14.17 17.617.383s-8.425 33.319-35.234 27.957c14.936 11.106 24.894 15.511 32.17 18.383 7.813 3.084 5.936 17.043-7.66 13.021-14.923-4.414-30.638-17.234-30.638-17.234s17.332 17.66 21.447 20.489c9.191 6.319 2.405 18.428-8.809 12.447-14.362-7.66-44.808-40.979-52.468-56.681" fill="#ffccb6"/><path d="m723.611 540.136c-2.11 0-4.473-.568-6.997-1.915-14.423-7.692-45.471-41.206-53.583-57.837-.63-1.293-.094-2.851 1.198-3.481 1.295-.629 2.851-.094 3.481 1.198 7.628 15.639 37.864 48.331 51.354 55.526 4.279 2.281 7.441 1.256 8.675-.778 1.166-1.917.824-4.896-2.566-7.227-4.201-2.889-20.039-18.985-21.831-20.812-.968-.986-.996-2.556-.065-3.577.933-1.021 2.498-1.135 3.569-.264.153.125 15.497 12.546 29.731 16.756 4.491 1.327 7.734.486 8.677-2.25.697-2.025-.141-4.839-2.712-5.854-8.012-3.164-18.169-7.861-32.768-18.716-.977-.727-1.32-2.033-.825-3.146.495-1.112 1.695-1.733 2.89-1.495 9.705 1.94 17.419.695 22.928-3.7 7.947-6.343 9.077-17.34 9.193-21.773.124-4.701-1.88-7.886-5.104-8.113-3.183-.227-6.679 2.488-7.324 8.097-1.48 12.871-9.438 15.105-12.79 15.468-8.597.936-18.772-5.86-21.748-14.538-2.453-7.155-.373-14.218 5.299-17.993 5.372-3.576 12.238-3.085 17.085 1.225 4.014 3.566 8.565 3.002 11.097.968 3.185-2.558 3.415-7.273.604-12.307-2.698-4.828-14.118-12.989-32.192-7.398-21.126 6.533-22.073 25.886-22.104 26.707-.052 1.434-1.221 2.57-2.689 2.51-1.434-.048-2.559-1.244-2.515-2.678.008-.238 1.021-23.859 25.769-31.514 20.363-6.296 34.284 2.69 38.276 9.833 2.686 4.807 4.065 11.675.234 16.736 1.114-.284 2.248-.391 3.365-.309 5.115.36 10.175 4.657 9.943 13.443-.287 10.91-4.352 20.28-11.151 25.706-4.63 3.695-10.378 5.607-17.161 5.724 9.846 6.559 17.149 9.874 23.602 12.421 4.932 1.947 7.445 7.391 5.723 12.393-1.444 4.189-6.26 8.155-15.076 5.547-3.41-1.009-6.841-2.426-10.118-4.023 1.368 1.239 2.47 2.176 3.14 2.637 5.886 4.047 6.501 10.218 4.067 14.223-1.583 2.596-4.641 4.58-8.581 4.58zm-13.503-93.576c-1.832 0-3.57.58-4.932 1.486-2.897 1.929-5.275 6.086-3.258 11.969 2.177 6.35 10.089 11.729 16.262 11.052 5.797-.628 7.646-6.268 8.179-10.888.379-3.294 1.478-5.949 2.997-7.964-4.432 1.255-9.535.082-13.438-3.389-1.814-1.612-3.865-2.266-5.81-2.266z" fill="#000008"/><path d="m601.495 468.593c1.052-17.878 12.094-22.084 24.801-22.172h33.39c-5.993-17.729-22.752-30.497-42.504-30.497-24.781 0-44.869 20.089-44.869 44.869v176.879c0 6.696 5.428 12.124 12.124 12.124h65.492c6.696 0 12.124-5.428 12.124-12.124v-96.187c0-6.903-3.764-13.242-9.82-16.554-16.422-8.982-50.738-19.532-50.738-56.338z" fill="#ff3479"/><path d="m649.928 652.208h-65.491c-8.016 0-14.536-6.521-14.536-14.536v-176.879c0-26.071 21.21-47.282 47.281-47.282 20.291 0 38.291 12.915 44.789 32.138.249.736.128 1.547-.325 2.179s-1.183 1.006-1.96 1.006h-33.39c-14.851.103-21.556 6.035-22.389 19.831.038 30.008 23.962 41.618 41.435 50.098 2.91 1.412 5.66 2.747 8.047 4.053 6.832 3.736 11.075 10.891 11.075 18.671v96.187c0 8.014-6.521 14.534-14.536 14.534zm-32.745-233.873c-23.411 0-42.458 19.047-42.458 42.458v176.879c0 5.355 4.356 9.712 9.712 9.712h65.491c5.355 0 9.712-4.356 9.712-9.712v-96.187c0-6.016-3.282-11.548-8.565-14.438-2.284-1.249-4.982-2.559-7.839-3.945-17.582-8.532-44.152-21.427-44.152-54.509 0-.047.001-.095.004-.142.961-16.327 9.855-24.322 27.192-24.442h29.901c-6.655-15.488-21.922-25.674-38.998-25.674z" fill="#000008"/><circle cx="616.744" cy="594" fill="#fff" r="28.394"/><path d="m610.171 555.615h12.094v74.666h-12.094z" fill="#ff3479" transform="matrix(.7071 -.7071 .7071 .7071 -238.7914 609.4024)"/><path d="m315.991 388.754-86.809 97.532h-106.213v-34.213h94.979l71.49-84.766z" fill="#ffccb6"/><path d="m229.182 488.889h-106.212c-1.438 0-2.604-1.166-2.604-2.604v-34.212c0-1.438 1.166-2.604 2.604-2.604h93.769l70.709-83.842c.914-1.081 2.524-1.235 3.626-.347l26.553 21.447c.554.447.9 1.103.959 1.812.058.709-.177 1.412-.65 1.943l-86.809 97.531c-.494.558-1.202.876-1.945.876zm-103.609-5.207h102.441l84.216-94.618-22.446-18.13-69.846 82.818c-.495.586-1.223.925-1.99.925h-92.375z" fill="#000008"/><path d="m284.022 359.574-37.359 45.651 38.737 28.896 37.952-43.116z" fill="#ffe732"/><path d="m285.399 436.533c-.503 0-1.01-.156-1.441-.479l-38.737-28.896c-.528-.394-.872-.986-.952-1.64-.081-.654.11-1.312.527-1.821l37.359-45.651c.836-1.024 2.34-1.182 3.373-.357l39.329 31.433c.516.412.839 1.018.897 1.674.058.657-.156 1.31-.592 1.805l-37.952 43.115c-.474.538-1.14.817-1.811.817zm-35.271-31.733 34.931 26.058 34.811-39.547-35.491-28.364z" fill="#000008"/><path d="m521.397 359.574 37.359 45.651-38.737 28.896-37.952-43.116z" fill="#ffe732"/><path d="m520.02 436.533c-.671 0-1.337-.279-1.812-.818l-37.951-43.115c-.436-.495-.65-1.147-.593-1.805.058-.656.382-1.262.897-1.674l39.329-31.433c1.031-.823 2.535-.667 3.373.357l37.359 45.651c.417.51.607 1.167.527 1.821-.08.653-.425 1.246-.952 1.64l-38.737 28.896c-.431.324-.938.48-1.44.48zm-34.47-45.222 34.81 39.547 34.932-26.058-34.251-41.854z" fill="#000008"/><circle cx="691.904" cy="366.743" fill="#b6e5ff" r="16.591"/><circle cx="679.744" cy="351.005" fill="#b6e5ff" r="20.885"/><circle cx="644.501" cy="361.571" fill="#b6e5ff" r="20.885"/><circle cx="657.487" cy="341.357" fill="#b6e5ff" r="12.394"/><circle cx="668.795" cy="376.353" fill="#b6e5ff" r="14.444"/><circle cx="157.806" cy="146.466" fill="#b6e5ff" r="24.989"/><circle cx="177.435" cy="169.096" fill="#b6e5ff" r="31.457"/><circle cx="229.533" cy="150.202" fill="#b6e5ff" r="31.457"/><circle cx="211.729" cy="181.708" fill="#b6e5ff" r="18.669"/><circle cx="191.74" cy="130.045" fill="#b6e5ff" r="21.755"/><circle cx="465.848" cy="601.874" fill="#b6e5ff" r="40.733"/><circle cx="432.692" cy="566.026" fill="#b6e5ff" r="51.276"/><circle cx="348.797" cy="599.521" fill="#b6e5ff" r="51.276"/><circle cx="376.164" cy="547.265" fill="#b6e5ff" r="30.43"/><circle cx="411.419" cy="630.393" fill="#b6e5ff" r="35.462"/><path d="m132.235 457.85s2.742-21.751-19.114-32.478c-17.454-8.566-31.538-2.838-36.146 3.027-10.033 12.771 2.72 23.571 13.245 16.82 9.704-6.225 22.42 4.115 15.794 16.64-6.284 11.879-29.98 16.793-29.07-4.969.577-13.808-15.575-16.799-17.462-2.364s3.136 34.225 30.453 33.101c-16.483 8.646-27.005 11.447-34.64 13.151-8.198 1.83-8.517 15.911 5.539 14.055 15.429-2.037 32.947-12.255 32.947-12.255s-19.87 14.747-24.375 16.901c-10.063 4.811-5.245 17.829 6.764 13.666 15.379-5.331 50.641-33.504 60.652-47.823" fill="#ffccb6"/><path d="m71.751 536.559c-4.932 0-8.358-2.751-9.697-6.011-1.781-4.334-.212-10.334 6.231-13.415.734-.351 1.969-1.105 3.514-2.116-3.487 1.068-7.096 1.934-10.623 2.399-9.119 1.2-13.255-3.463-14.028-7.825-.924-5.21 2.406-10.196 7.581-11.352 6.769-1.512 14.5-3.649 25.247-8.596-6.683-1.171-12.062-3.954-16.061-8.325-5.872-6.419-8.428-16.307-7.014-27.129 1.139-8.715 6.796-12.18 11.914-11.732 1.112.096 2.219.375 3.276.829-2.996-5.597-.563-12.165 2.837-16.494 5.056-6.436 20.207-13.148 39.34-3.756 23.255 11.412 20.58 34.904 20.55 35.14-.18 1.428-1.482 2.433-2.909 2.258-1.424-.18-2.434-1.479-2.258-2.902.099-.824 2.169-20.082-17.677-29.821-16.983-8.335-29.535-2.052-32.952 2.299-3.562 4.533-4.067 9.227-1.32 12.249 2.184 2.403 6.594 3.671 11.113.771 5.459-3.499 12.316-2.918 17.067 1.45 5.016 4.612 5.971 11.913 2.434 18.6-4.291 8.108-15.385 13.236-23.747 10.976-3.255-.881-10.767-4.326-10.226-17.271.236-5.642-2.827-8.867-5.975-9.139-3.217-.275-5.695 2.557-6.305 7.22-.575 4.398-1.171 15.438 5.692 22.939 4.756 5.2 12.183 7.627 22.072 7.224 1.215-.034 2.306.751 2.622 1.927.315 1.177-.227 2.414-1.306 2.98-16.113 8.451-26.877 11.51-35.281 13.387-2.697.602-3.963 3.251-3.589 5.36.505 2.85 3.58 4.191 8.22 3.572 14.716-1.942 31.807-11.823 31.978-11.923 1.194-.694 2.724-.339 3.484.816.761 1.153.488 2.699-.622 3.523-2.054 1.524-20.204 14.96-24.803 17.159-3.712 1.775-4.514 4.664-3.661 6.739.904 2.198 3.867 3.707 8.449 2.118 14.445-5.007 49.401-32.595 59.371-46.854.823-1.179 2.447-1.466 3.625-.643 1.178.824 1.466 2.447.642 3.625-10.603 15.167-46.489 43.438-61.933 48.792-1.902.66-3.667.952-5.272.952zm6.073-87.892c1.188 2.227 1.86 5.02 1.722 8.333-.194 4.646.755 10.505 6.383 12.027 6 1.626 14.646-2.451 17.785-8.385 2.909-5.498 1.207-9.975-1.356-12.331-2.481-2.283-6.763-3.445-10.731-.9-4.398 2.821-9.622 3.18-13.803 1.256z" fill="#000008"/><path d="m539.903 302.882c0-74.876-60.699-135.574-135.574-135.574s-135.574 60.699-135.574 135.574c0 39.594 16.976 75.219 44.043 100.006v94.93c0 41.027 26.359 78.011 64.186 87.377 13.686 3.389 26.707-4.526 26.707-4.526 7.915 5.106 14.809 8.17 26.143 5.081 38.31-10.443 66.028-46.231 66.028-87.932v-94.93c27.064-24.787 44.041-60.413 44.041-100.006z" fill="#ffccb6"/><path d="m421.317 589.585c-7.172 0-12.579-2.673-17.724-5.892-3.934 2.037-15.233 7.002-27.236 4.029-38.338-9.493-66.165-47.303-66.165-89.904v-93.791c-28.006-26.082-44.043-62.877-44.043-101.146 0-76.191 61.987-138.178 138.178-138.178s138.178 61.986 138.178 138.178c0 38.269-16.036 75.064-44.042 101.146v93.791c0 42.346-27.941 79.538-67.947 90.443-3.387.924-6.425 1.324-9.199 1.324zm-17.627-11.519c.491 0 .982.139 1.41.415 8.175 5.272 14.136 7.458 24.047 4.757 37.747-10.29 64.109-45.416 64.109-85.42v-94.931c0-.73.307-1.427.846-1.92 27.452-25.141 43.196-60.892 43.196-98.086 0-73.32-59.65-132.971-132.971-132.971s-132.971 59.65-132.971 132.971c0 37.194 15.745 72.945 43.198 98.086.539.493.845 1.189.845 1.92v94.931c0 40.24 26.163 75.925 62.208 84.85 12.43 3.083 24.61-4.151 24.732-4.226.417-.251.885-.376 1.351-.376z" fill="#000008"/><path d="m406.498 537.775c27.68 0 53.562 3.114 75.633 8.521 6.805-11.022 11.361-23.604 13.025-37.043.464-3.75.704-7.567.704-11.436v-95.617c-21.83 18.638-58.283 28.979-90.383 28.979-32.99 0-61.66-6.511-92.681-28.213v94.851c0 17.947 5.044 35.12 13.885 49.546 22.955-6.061 50.367-9.588 79.817-9.588z" fill="#ffe732"/><path d="m326.682 549.776c-.825 0-1.611-.424-2.057-1.151-9.316-15.202-14.241-32.771-14.241-50.807v-94.852c0-.899.5-1.724 1.298-2.14.796-.416 1.759-.354 2.497.163 27.831 19.47 55.135 27.777 91.298 27.777 33.746 0 68.608-11.148 88.816-28.401.717-.61 1.725-.75 2.576-.355.855.394 1.402 1.249 1.402 2.19v95.617c0 3.917-.243 7.864-.723 11.732-1.682 13.583-6.179 26.372-13.365 38.013-.55.89-1.607 1.325-2.627 1.075-22.567-5.528-48.522-8.451-75.06-8.451-28.26 0-55.647 3.288-79.2 9.509-.203.056-.41.081-.614.081zm-11.474-142.243v90.285c0 16.544 4.356 32.67 12.614 46.757 23.548-6.029 50.704-9.212 78.676-9.212 26.246 0 51.953 2.823 74.482 8.174 6.296-10.644 10.257-22.268 11.782-34.58.455-3.672.686-7.42.686-11.139v-90.595c-21.414 16.128-55.25 26.368-87.971 26.368-35.586.001-62.862-7.829-90.269-26.058z" fill="#000008"/><path d="m473.592 508.511c51.08-7.031 55.333 47.144 15.013 58.801-25.252 7.301-63.213 19.356-63.213 19.356" fill="#ffccb6"/><path d="m338.281 546.097 124.824 28.296 11.42-82.751-13.293.493-7.156 20.423-20.929 2.811s-22.213 5.617-34.981 6.902c-16.984-3.577-35.046-7.363-48.179-10.072-2.021-.417-6.479-25.32-8.245-25.681-3.54-.724-7.198 5.039-9.447 4.596-1.18-.233.891 17.712-.244 17.541-52.016-7.874-56.586 46.925-16.006 58.658 25.253 7.301 63.006 18.208 63.006 18.208" fill="#ffccb6"/><circle cx="353.357" cy="273.774" fill="#fff" r="34.856"/><path d="m353.356 311.042c-20.55 0-37.269-16.719-37.269-37.269s16.719-37.269 37.269-37.269 37.269 16.719 37.269 37.269-16.719 37.269-37.269 37.269zm0-69.713c-17.89 0-32.444 14.555-32.444 32.444s14.555 32.444 32.444 32.444 32.444-14.555 32.444-32.444-14.554-32.444-32.444-32.444z" fill="#000008"/><circle cx="352.961" cy="258.572" fill="#050001" r="14.785"/><path d="m194.055 654.908v58.958h-87.257s-3.537-26.531 18.277-28.3 19.751-31.837 19.751-31.837z" fill="#03ca74"/><path d="m194.055 716.277h-87.257c-1.209 0-2.231-.895-2.391-2.094-.078-.587-1.835-14.498 5.498-23.59 3.56-4.415 8.599-6.916 14.975-7.433 7.91-.642 13.26-5.599 15.9-14.733 2.096-7.248 1.644-14.464 1.639-14.536-.045-.677.196-1.342.665-1.831.469-.49 1.129-.776 1.799-.743l49.229 1.179c1.31.031 2.354 1.102 2.354 2.411v58.958c.001 1.332-1.079 2.412-2.411 2.412zm-85.02-4.824h82.607v-54.19l-44.316-1.062c.061 11.663-4.333 30.332-22.057 31.769-4.999.405-8.9 2.302-11.597 5.637-4.534 5.607-4.795 13.979-4.637 17.846z" fill="#000008"/><circle cx="167.72" cy="676.034" fill="#fff" r="9.335"/><path d="m167.72 687.781c-6.478 0-11.747-5.27-11.747-11.747s5.27-11.747 11.747-11.747 11.747 5.27 11.747 11.747-5.269 11.747-11.747 11.747zm0-18.67c-3.817 0-6.923 3.105-6.923 6.923s3.105 6.923 6.923 6.923 6.923-3.105 6.923-6.923-3.105-6.923-6.923-6.923z" fill="#000008"/><path d="m106.699 703.842h87.454v10.219h-87.454z" fill="#fff" transform="matrix(-1 -0 0 -1 300.852 1417.9039)"/><path d="m194.153 716.474h-87.454c-1.332 0-2.412-1.08-2.412-2.412v-10.219c0-1.332 1.08-2.412 2.412-2.412h87.454c1.332 0 2.412 1.08 2.412 2.412v10.219c0 1.332-1.08 2.412-2.412 2.412zm-85.042-4.825h82.629v-5.395h-82.629z" fill="#000008"/><path d="m133.82 703.48-8.058-18.111s-19.063 1.087-19.063 18.473c5.896 0 26.924-.543 27.121-.362z" fill="#fff"/><path d="m106.699 706.255c-1.332 0-2.412-1.08-2.412-2.412 0-15.556 13.958-20.461 21.338-20.882 1.011-.056 1.933.513 2.341 1.428l8.058 18.111c.465 1.046.131 2.274-.799 2.941-.528.378-1.168.514-1.775.423-1.129-.043-7.857.081-13.291.185-5.338.101-10.858.206-13.46.206zm25.529-.962s.001 0 .001.001c0-.001-.001-.001-.001-.001zm-.003-.003s.001.001.002.002c-.001-.001-.002-.002-.002-.002zm-.003-.002s.001.001.001.001 0-.001-.001-.001zm-.003-.003c0 .001.001.001.002.002 0-.001-.001-.001-.002-.002zm-.003-.003c0 .001.001.002.002.002-0 0-.001-.001-.002-.002zm-.003-.002c.001.001.002.001.003.002-.001-.001-.002-.001-.003-.002zm-.002-.003c0 .001.001.002.002.003-.001-.001-.002-.002-.002-.003zm-.003-.002c.001.001.002.001.002.002 0-.001-.001-.001-.002-.002zm-.002-.003c0 .001.001.002.002.003-.001-.001-.002-.002-.002-.003zm-.006-.004c.001.002.003.004.005.005-.001-.002-.003-.003-.005-.005zm-.005-.005c.001.002.003.004.005.005-.002-.002-.004-.003-.005-.005zm-.003-.002.002.002c-.001-.001-.001-.001-.002-.002zm-.003-.003c0 .001.001.002.002.002 0 0-.001-.001-.002-.002zm-.002-.002.002.002c-.001-.001-.001-.001-.002-.002zm-.003-.003c.001.001.001.002.002.002-.001 0-.001-.001-.002-.002zm-7.904-17.281c-3.934.633-13.673 3.225-15.015 13.439 2.865-.035 6.882-.111 10.801-.187 4.677-.089 7.853-.148 10.036-.165z" fill="#000008"/><path d="m299.677 654.908v58.958h-87.257s-3.537-26.531 18.277-28.3 19.751-31.837 19.751-31.837z" fill="#03ca74"/><path d="m299.677 716.277h-87.257c-1.209 0-2.231-.895-2.391-2.094-.078-.587-1.835-14.498 5.498-23.59 3.56-4.415 8.599-6.916 14.975-7.433 7.91-.642 13.26-5.599 15.9-14.733 2.096-7.248 1.644-14.464 1.639-14.536-.045-.677.196-1.342.665-1.831.469-.49 1.14-.776 1.799-.743l49.229 1.179c1.31.031 2.354 1.102 2.354 2.411v58.958c.001 1.332-1.079 2.412-2.411 2.412zm-85.02-4.824h82.607v-54.19l-44.316-1.062c.061 11.663-4.333 30.332-22.057 31.769-4.999.405-8.9 2.302-11.597 5.637-4.534 5.607-4.794 13.979-4.637 17.846z" fill="#000008"/><circle cx="273.342" cy="676.034" fill="#fff" r="9.335"/><path d="m273.342 687.781c-6.478 0-11.747-5.27-11.747-11.747s5.27-11.747 11.747-11.747 11.747 5.27 11.747 11.747-5.269 11.747-11.747 11.747zm0-18.67c-3.817 0-6.923 3.105-6.923 6.923s3.105 6.923 6.923 6.923 6.923-3.105 6.923-6.923-3.105-6.923-6.923-6.923z" fill="#000008"/><path d="m212.321 703.842h87.454v10.219h-87.454z" fill="#fff" transform="matrix(-1 -0 0 -1 512.0961 1417.9039)"/><path d="m299.775 716.474h-87.454c-1.332 0-2.412-1.08-2.412-2.412v-10.219c0-1.332 1.08-2.412 2.412-2.412h87.454c1.332 0 2.412 1.08 2.412 2.412v10.219c0 1.332-1.08 2.412-2.412 2.412zm-85.042-4.825h82.629v-5.395h-82.629z" fill="#000008"/><path d="m239.442 703.48-8.058-18.111s-19.063 1.087-19.063 18.473c5.896 0 26.924-.543 27.121-.362z" fill="#fff"/><path d="m212.321 706.255c-1.332 0-2.412-1.08-2.412-2.412 0-15.556 13.958-20.461 21.338-20.882 1.004-.056 1.934.513 2.341 1.428l8.058 18.111c.465 1.046.131 2.274-.799 2.941-.529.378-1.167.514-1.775.423-1.13-.043-7.857.081-13.291.185-5.338.101-10.858.206-13.46.206zm25.532-.959s.001 0 0 0zm-.003-.003s.001 0 .001.001c0-.001-.001-.001-.001-.001zm-.003-.003s.001.001.002.002c-.001-.001-.002-.002-.002-.002zm-.003-.002s.001.001.001.001 0-.001-.001-.001zm-.003-.003c0 .001.001.001.002.002-0-.001-.001-.001-.002-.002zm-.003-.003c0 .001.001.002.002.002 0 0-.001-.001-.002-.002zm-.003-.002c.001.001.002.001.003.002-.001-.001-.002-.001-.003-.002zm-.002-.003c0 .001.001.002.002.003-.001-.001-.002-.002-.002-.003zm-.003-.002c.001.001.002.001.002.002-0-.001-.001-.001-.002-.002zm-.002-.003c0 .001.001.002.002.003-.001-.001-.002-.002-.002-.003zm-.006-.004c.001.002.003.004.005.005-.001-.002-.003-.003-.005-.005zm-.005-.005c.001.002.003.004.005.005-.002-.002-.004-.003-.005-.005zm-.003-.002.002.002c-.001-.001-.001-.001-.002-.002zm-.002-.003c0 .001.001.002.002.002-.001 0-.002-.001-.002-.002zm-.003-.002.002.002c-.001-.001-.001-.001-.002-.002zm-.003-.003c.001.001.001.002.002.002-.001 0-.001-.001-.002-.002zm-7.904-17.281c-3.934.633-13.673 3.225-15.015 13.439 2.865-.035 6.882-.111 10.801-.187 4.677-.089 7.853-.148 10.036-.165z" fill="#000008"/><path d="m458.096 724.488h-370.492c-2.665 0-4.824-2.16-4.824-4.824s2.16-4.824 4.824-4.824h370.491c2.664 0 4.824 2.16 4.824 4.824s-2.159 4.824-4.823 4.824z" fill="#000008"/><path d="m575.757 724.488h-72.383c-2.664 0-4.824-2.16-4.824-4.824s2.16-4.824 4.824-4.824h72.383c2.664 0 4.824 2.16 4.824 4.824s-2.16 4.824-4.824 4.824z" fill="#000008"/><path d="m278.82 317.413c-19.375 15.183-47.39 11.784-62.573-7.591s-11.784-47.39 7.591-62.573 47.39-11.784 62.573 7.591" fill="#ffccb6"/><path d="m251.38 329.294c-13.956 0-27.776-6.174-37.032-17.984-7.741-9.878-11.171-22.179-9.66-34.637s7.784-23.582 17.662-31.322c9.877-7.74 22.18-11.17 34.637-9.66 12.458 1.512 23.582 7.783 31.323 17.661.821 1.049.638 2.565-.411 3.387-1.049.82-2.564.637-3.387-.41-6.945-8.864-16.927-14.492-28.106-15.849-11.18-1.355-22.217 1.722-31.08 8.668-8.864 6.946-14.492 16.928-15.848 28.106-1.356 11.179 1.722 22.216 8.668 31.079 14.339 18.299 40.89 21.518 59.187 7.182 1.048-.821 2.564-.638 3.387.41.821 1.049.638 2.565-.411 3.387-8.581 6.723-18.791 9.982-28.929 9.982z" fill="#000008"/><path d="m267.721 293.854c-1.367 0-2.747-.419-3.958-1.246-2.632-1.797-3.91-5.06-3.418-8.729.176-1.321 1.381-2.254 2.711-2.07 1.32.177 2.248 1.391 2.07 2.711-.244 1.823.263 3.357 1.357 4.104.681.465 1.456.537 2.076.193 1.036-.574 1.6-2.262 1.508-4.515-.598-14.768-9.998-21.425-19.048-21.473-.031 0-.063 0-.094 0-8.748 0-18.448 6.348-19.159 20.332-.068 1.33-1.221 2.334-2.532 2.286-1.331-.067-2.354-1.201-2.287-2.532.387-7.607 3.141-14.033 7.963-18.58 4.362-4.113 10.122-6.34 16.133-6.33 6.086.032 11.795 2.386 16.074 6.629 4.759 4.719 7.445 11.452 7.77 19.473.169 4.176-1.285 7.43-3.99 8.93-.987.547-2.077.817-3.176.817z" fill="#000008"/><path d="m531.454 317.413c19.375 15.183 47.39 11.784 62.573-7.591s11.784-47.39-7.591-62.573-47.39-11.784-62.573 7.591" fill="#ffccb6"/><path d="m558.85 329.32c-10.447 0-20.531-3.464-28.884-10.009-1.048-.821-1.232-2.338-.41-3.387.821-1.048 2.336-1.234 3.387-.41 8.864 6.945 19.899 10.028 31.08 8.667 11.179-1.356 21.16-6.984 28.106-15.849 6.945-8.863 10.023-19.9 8.667-31.079-1.355-11.179-6.984-21.16-15.849-28.106-8.863-6.946-19.897-10.023-31.079-8.668-11.179 1.356-21.16 6.984-28.106 15.849-.822 1.047-2.337 1.232-3.387.41-1.048-.821-1.232-2.338-.41-3.387 7.74-9.878 18.864-16.149 31.322-17.661s24.759 1.919 34.637 9.66c9.878 7.74 16.15 18.864 17.662 31.322 1.511 12.458-1.919 24.759-9.66 34.637-7.74 9.877-18.864 16.149-31.322 17.661-1.924.234-3.846.35-5.754.35z" fill="#000008"/><path d="m542.553 293.854c-1.1 0-2.189-.271-3.176-.817-2.705-1.5-4.159-4.754-3.99-8.93.324-8.02 3.012-14.753 7.77-19.473 4.279-4.243 9.987-6.597 16.074-6.629h.125c5.996 0 11.676 2.245 16.008 6.33 4.823 4.547 7.576 10.973 7.964 18.58.067 1.331-.956 2.465-2.286 2.532-1.344.057-2.465-.956-2.532-2.286-.712-13.983-10.412-20.332-19.159-20.332-.032 0-.062 0-.094 0-9.051.048-18.451 6.705-19.049 21.473-.091 2.253.473 3.94 1.509 4.515.618.343 1.395.271 2.076-.193 1.094-.747 1.601-2.281 1.356-4.104-.177-1.32.75-2.534 2.07-2.711 1.324-.172 2.534.751 2.711 2.07.492 3.67-.786 6.933-3.418 8.729-1.212.828-2.593 1.246-3.959 1.246z" fill="#000008"/><ellipse cx="404.966" cy="358.669" fill="#fc8e04" rx="58.468" ry="28.596"/><path d="m404.967 389.677c-34.139 0-60.88-13.62-60.88-31.008s26.742-31.008 60.88-31.008 60.88 13.62 60.88 31.008-26.742 31.008-60.88 31.008zm0-57.192c-30.386 0-56.056 11.99-56.056 26.184s25.67 26.184 56.056 26.184 56.056-11.99 56.056-26.184-25.67-26.184-56.056-26.184z" fill="#000008"/><ellipse cx="404.966" cy="358.669" fill="#050001" rx="33.957" ry="9.191"/><path d="m425.391 589.272c-1.104.001-2.128-.707-2.48-1.815-.435-1.37.323-2.834 1.693-3.27.38-.12 38.282-12.149 63.278-19.376 19.823-5.731 27.454-21.646 24.746-34.405-3.749-17.671-23.184-21.452-38.681-19.315-1.43.195-2.738-.8-2.935-2.224-.196-1.425.8-2.738 2.224-2.935 28.347-3.898 41.678 10.163 44.485 23.393 1.703 8.027.012 16.488-4.763 23.823-5.158 7.924-13.33 13.687-23.632 16.665-24.93 7.208-62.769 19.216-63.147 19.337-.261.083-.527.122-.788.122z" fill="#000008"/><path d="m398.071 524.734c-1.239 0-2.337-.888-2.561-2.15-.25-1.415.694-2.767 2.11-3.017 15.17-2.684 29.187-5.318 41.552-7.644 4.657-.876 9.102-1.711 13.318-2.495 1.402-.262 2.771.67 3.035 2.084.263 1.413-.67 2.772-2.084 3.035-4.213.783-8.654 1.618-13.307 2.493-12.379 2.327-26.41 4.965-41.608 7.653-.151.029-.304.041-.455.041z" fill="#000008"/><path d="m349.525 514.777c-1.159.001-2.215-.778-2.519-1.953l-5.217-20.205c-.451-1.747-2.027-2.997-3.831-3.039-1.168-.017-2.262.432-3.062 1.294-.8.86-1.179 1.979-1.065 3.148l1.381 14.288c.138 1.431-.91 2.703-2.341 2.841-1.43.154-2.703-.909-2.842-2.341l-1.381-14.288c-.254-2.633.633-5.255 2.434-7.193s4.339-3.018 6.998-2.954c4.122.096 7.721 2.951 8.751 6.943l5.217 20.205c.359 1.392-.478 2.812-1.87 3.171-.218.057-.437.083-.653.083z" fill="#000008"/><path d="m338.839 573.953c-.545 0-1.081-.171-1.529-.497-.599-.435-.985-1.104-1.061-1.841l-2.661-25.972c-.146-1.431.894-2.709 2.325-2.855 1.43-.137 2.709.895 2.855 2.324l2.365 23.078 53.837-11.641c1.408-.305 2.792.59 3.095 1.995.304 1.405-.589 2.79-1.994 3.095l-56.681 12.255c-.183.04-.368.059-.551.059z" fill="#000008"/><path d="m378.329 588.021s-37.753-10.906-63.006-18.207c-23.203-6.708-31.852-26.284-28.209-41.297 3.358-13.846 18.186-27.865 48.914-21.81 19.539 3.85 95.323 19.907 109.336 22.879l12.506-35.141c1.491-4.191 5.617-6.742 10.037-6.22 2.541.306 4.8 1.589 6.362 3.614s2.23 4.537 1.881 7.071l-10.466 75.837c-.1.723-.498 1.37-1.098 1.785-.601.415-1.347.559-2.057.398l-124.824-28.296c-1.402-.318-2.281-1.713-1.963-3.114.318-1.403 1.714-2.278 3.115-1.964l122.057 27.669 10.078-73.027c.157-1.14-.143-2.269-.845-3.179-.703-.911-1.719-1.488-2.86-1.625-1.985-.248-3.842.912-4.513 2.796l-13.27 37.287c-.438 1.229-1.713 1.945-2.993 1.674-.897-.191-90.08-19.118-111.49-23.338-16.949-3.335-38.34-.648-42.848 17.93-3.072 12.664 4.503 29.259 24.596 35.067 25.252 7.301 63.005 18.207 63.005 18.207z" fill="#000008"/><path d="m385.732 260.861c-5.132-12.856-17.688-21.944-32.375-21.944s-27.243 9.088-32.375 21.944z" fill="#ffccb6"/><path d="m385.732 263.465h-64.751c-.864 0-1.671-.429-2.155-1.144s-.583-1.623-.263-2.425c5.72-14.326 19.376-23.583 34.793-23.583s29.074 9.257 34.793 23.583c.32.802.222 1.71-.263 2.425s-1.29 1.144-2.154 1.144zm-60.655-5.207h56.559c-5.615-10.281-16.334-16.737-28.279-16.737s-22.665 6.456-28.28 16.737z" fill="#000008"/><path d="m321.272 287.414c5.309 12.471 17.675 21.216 32.084 21.216s26.775-8.745 32.084-21.216z" fill="#ffccb6"/><path d="m353.356 311.233c-15.049 0-28.583-8.949-34.479-22.8-.342-.804-.258-1.727.224-2.455.482-.729 1.297-1.168 2.171-1.168h64.168c.874 0 1.689.438 2.171 1.168.482.729.566 1.651.224 2.455-5.895 13.851-19.429 22.8-34.479 22.8zm-27.872-21.215c5.729 9.841 16.278 16.009 27.873 16.009s22.144-6.168 27.873-16.009z" fill="#000008"/><circle cx="459.059" cy="273.774" fill="#fff" r="34.856"/><path d="m459.059 311.042c-20.55 0-37.269-16.719-37.269-37.269s16.719-37.269 37.269-37.269 37.269 16.719 37.269 37.269-16.72 37.269-37.269 37.269zm0-69.713c-17.89 0-32.444 14.555-32.444 32.444s14.555 32.444 32.444 32.444 32.444-14.555 32.444-32.444-14.555-32.444-32.444-32.444z" fill="#000008"/><circle cx="458.663" cy="258.572" fill="#050001" r="14.785"/><path d="m491.434 260.861c-5.132-12.856-17.688-21.944-32.375-21.944s-27.243 9.088-32.375 21.944z" fill="#ffccb6"/><path d="m491.435 263.465h-64.751c-.863 0-1.671-.429-2.155-1.144s-.583-1.623-.263-2.425c5.719-14.326 19.376-23.583 34.793-23.583s29.074 9.257 34.794 23.583c.32.802.222 1.71-.263 2.425s-1.292 1.144-2.155 1.144zm-60.656-5.207h56.559c-5.615-10.282-16.334-16.737-28.279-16.737s-22.664 6.456-28.28 16.737z" fill="#000008"/><path d="m426.974 287.414c5.309 12.471 17.675 21.216 32.084 21.216s26.775-8.745 32.084-21.216z" fill="#ffccb6"/><path d="m459.059 311.233c-15.05 0-28.584-8.949-34.479-22.8-.342-.804-.258-1.727.224-2.455.482-.729 1.298-1.168 2.172-1.168h64.168c.874 0 1.689.438 2.172 1.168.481.729.565 1.651.224 2.455-5.897 13.851-19.432 22.8-34.481 22.8zm-27.872-21.215c5.729 9.841 16.277 16.009 27.872 16.009s22.144-6.168 27.872-16.009z" fill="#000008"/><path d="m444.542 471.252c-.244 0-.492-.037-.736-.115-38.934-12.462-81.387-.113-81.811.014-1.276.379-2.621-.347-3-1.623-.38-1.276.346-2.62 1.623-3 1.789-.533 44.275-12.909 84.659.014 1.269.406 1.968 1.765 1.562 3.033-.328 1.024-1.277 1.677-2.297 1.677z" fill="#000008"/><path d="m481.416 214.018c2.74.736 5.239 2.425 6.949 4.963 3.769 5.59 2.293 13.177-3.297 16.946-23.36 15.752-50.284 1.696-51.421 1.087-5.946-3.175-8.193-10.57-5.015-16.517 3.162-5.924 10.518-8.184 16.45-5.05.389.196 13.403 8.45 26.336.238 3.109-1.974 6.701-2.553 9.998-1.667z" fill="#ffe732"/><path d="m460.087 245.779c-14.93 0-26.817-6.232-27.579-6.641-3.441-1.837-5.963-4.907-7.098-8.644-1.134-3.736-.745-7.691 1.095-11.136 3.779-7.078 12.618-9.79 19.705-6.046-.001 0-.001 0-.001 0s.082.044.202.113c2.949 1.713 13.375 6.788 23.715.221 3.684-2.34 7.913-3.032 11.916-1.96v.001c3.399.913 6.355 3.024 8.323 5.943 2.183 3.238 2.975 7.132 2.229 10.965-.745 3.833-2.939 7.146-6.177 9.329-8.788 5.928-18.03 7.855-26.33 7.855zm-20.677-29.32c-3.506 0-6.893 1.882-8.649 5.173-1.233 2.309-1.494 4.958-.734 7.461.761 2.503 2.45 4.56 4.757 5.792 1.084.582 26.726 14.019 48.937-.959 2.169-1.463 3.639-3.683 4.139-6.25.5-2.568-.03-5.178-1.493-7.347-1.318-1.956-3.299-3.37-5.575-3.982v.001c-2.682-.724-5.551-.232-8.078 1.372-12.638 8.026-25.181 1.937-28.724-.121-1.464-.774-3.034-1.14-4.58-1.14z" fill="#000008"/><path d="m375.203 213.252c2.74.736 5.239 2.425 6.949 4.963 3.769 5.59 2.293 13.177-3.297 16.946-23.36 15.752-50.284 1.696-51.421 1.087-5.946-3.175-8.193-10.57-5.015-16.517 3.162-5.924 10.518-8.184 16.45-5.05.389.196 13.403 8.45 26.336.238 3.109-1.974 6.701-2.553 9.998-1.667z" fill="#ffe732"/><path d="m353.876 245.012c-14.93.001-26.819-6.23-27.581-6.639-3.441-1.837-5.963-4.908-7.098-8.645-1.135-3.736-.746-7.691 1.095-11.136 3.778-7.077 12.617-9.791 19.705-6.046s.081.043.201.113c2.947 1.713 13.367 6.79 23.716.222 3.683-2.34 7.916-3.037 11.916-1.959 3.4.914 6.356 3.024 8.323 5.944 2.183 3.236 2.974 7.13 2.229 10.964-.746 3.833-2.939 7.146-6.177 9.329-8.787 5.926-18.029 7.853-26.329 7.853zm-20.678-29.32c-3.505 0-6.894 1.882-8.65 5.173-1.234 2.309-1.494 4.958-.734 7.462.76 2.503 2.449 4.56 4.757 5.792 1.084.581 26.729 14.016 48.936-.959 2.169-1.463 3.639-3.683 4.139-6.251s-.031-5.177-1.494-7.346c-1.318-1.956-3.297-3.37-5.575-3.982-2.679-.719-5.549-.232-8.077 1.373-12.647 8.03-25.187 1.936-28.727-.123-1.461-.772-3.029-1.139-4.575-1.139z" fill="#000008"/><path d="m429.827 170.443s-41.721-15.276-58.352-44.949c-16.631-29.672-39.156-6.996-18.772 16.647-27.264-33.79-51.193-12.65-24.47 15.844-19.186-10.951-42.37 4.676-16.846 20.478 25.525 15.803 86.457 7.13 118.44-8.02z" fill="#ffe732"/><path d="m351.565 189.28c-17.741 0-32.135-3-41.447-8.766-16.055-9.939-12.453-18.867-10.966-21.367 3.307-5.562 12.015-8.695 21.519-6.643-5.641-8.147-7.787-16.087-5.781-22.166 1.363-4.131 4.621-6.952 8.939-7.738 5.608-1.019 12.282 1.312 19.066 6.443-1.206-4.996-.724-9.356.629-12.535 1.907-4.478 5.721-7.296 10.205-7.539 6.93-.377 14.172 5.217 19.85 15.346 15.992 28.53 56.669 43.713 57.078 43.863.912.334 1.535 1.185 1.579 2.155s-.498 1.873-1.377 2.289c-16.496 7.814-39.842 13.735-62.451 15.839-5.885.549-11.515.819-16.843.819zm-36.8-32.536c-5.262 0-9.682 1.87-11.466 4.869-2.451 4.122 1.047 9.654 9.359 14.8 22.582 13.981 77.194 8.22 111.036-5.885-4.298-1.89-10.807-5.007-18.049-9.365-11.664-7.019-27.424-18.7-36.273-34.488-4.673-8.338-10.388-13.147-15.38-12.888-2.643.144-4.84 1.824-6.027 4.611-1.899 4.461-1.397 12.141 5.376 20.726.416.491.829.992 1.241 1.503.827 1.024.679 2.523-.332 3.367-1.012.844-2.511.721-3.373-.277-.446-.518-.873-1.034-1.279-1.549-10.426-12.331-19.641-15.786-24.904-14.82-2.601.473-4.406 2.03-5.222 4.503-1.565 4.744.377 13.668 10.521 24.484.817.871.874 2.208.134 3.145-.739.937-2.052 1.193-3.089.601-4.07-2.323-8.4-3.337-12.273-3.337z" fill="#000008"/><path d="m433.041 147.706s55.95-48.53 84.753-27.256c23.522 17.373-5.462 64.026-5.462 64.026z" fill="#03ca74"/><path d="m512.331 186.888c-.341 0-.687-.072-1.014-.224l-79.291-36.77c-.742-.345-1.26-1.041-1.374-1.852s.19-1.623.808-2.159c.58-.503 14.392-12.416 32.013-21.907 24.235-13.054 42.994-14.893 55.754-5.467 10.521 7.771 12.928 22.012 6.96 41.185-4.347 13.969-11.503 25.567-11.806 26.055-.453.729-1.238 1.139-2.05 1.139zm-74.797-39.757 73.825 34.235c4.895-8.6 23.96-44.973 5.001-58.976-23.33-17.234-67.158 15.391-78.826 24.741z" fill="#000008"/><path d="m419.843 155.075h99.71v34.462h-99.71z" fill="#03ca74" transform="matrix(.8863 .4632 -.4632 .8863 133.2194 -197.9475)"/><path d="m505.902 213.08c-.386 0-.77-.093-1.117-.274l-88.371-46.182c-.567-.296-.993-.806-1.185-1.416s-.133-1.271.164-1.839l15.962-30.542c.617-1.182 2.076-1.639 3.255-1.021l88.37 46.181c1.181.617 1.638 2.074 1.021 3.255l-15.961 30.543c-.296.567-.806.993-1.416 1.185-.235.074-.479.11-.722.11zm-85.116-49.614 84.096 43.947 13.727-26.268-84.095-43.946z" fill="#000008"/><ellipse cx="564.541" cy="143.052" fill="#03ca74" rx="12.255" ry="10.723"/><g fill="#000008"><path d="m564.541 156.188c-8.088 0-14.668-5.893-14.668-13.136s6.58-13.136 14.668-13.136 14.667 5.893 14.667 13.136-6.579 13.136-14.667 13.136zm0-21.448c-5.428 0-9.844 3.729-9.844 8.312s4.416 8.312 9.844 8.312 9.843-3.729 9.843-8.312-4.415-8.312-9.843-8.312z"/><path d="m556.883 135.251c-.776 0-1.539-.374-2.004-1.067-9.99-14.873-28.332-18.02-37.085-13.731-1.197.585-2.642.092-3.228-1.104s-.092-2.641 1.104-3.228c5.596-2.743 13.644-2.955 21.527-.57 8.883 2.688 16.584 8.35 21.685 15.944.743 1.105.449 2.604-.657 3.347-.412.276-.879.409-1.342.409z"/><path d="m354.161 436.846c-.1 0-.201-.006-.302-.019-1.322-.165-2.26-1.371-2.094-2.692.548-4.381 8.884-18.159 10.55-20.877.697-1.135 2.183-1.492 3.317-.796 1.136.696 1.493 2.182.796 3.317-3.916 6.39-9.568 16.494-9.876 18.953-.153 1.221-1.193 2.114-2.391 2.114z"/><path d="m326.071 427.144c-.47 0-.944-.137-1.36-.421-1.099-.753-1.381-2.254-.628-3.354l6.638-9.702c.752-1.1 2.254-1.379 3.353-.629 1.099.753 1.381 2.254.628 3.354l-6.638 9.702c-.468.682-1.224 1.05-1.993 1.05z"/><path d="m321.989 395.483c-.688 0-1.372-.293-1.849-.86-.857-1.021-.725-2.542.296-3.398l12.766-10.723c1.02-.857 2.542-.724 3.398.295.857 1.021.725 2.542-.296 3.398l-12.766 10.723c-.451.38-1.001.565-1.549.565z"/><path d="m385.82 440.931c-.125 0-.251-.01-.379-.029-1.316-.208-2.214-1.443-2.007-2.759l4.596-29.106c.208-1.316 1.441-2.208 2.759-2.007 1.316.208 2.214 1.443 2.007 2.759l-4.596 29.106c-.188 1.188-1.213 2.036-2.38 2.036z"/><path d="m414.411 441.952c-1.272 0-2.337-.996-2.407-2.282l-1.021-18.894c-.071-1.33.948-2.467 2.279-2.539 1.309-.057 2.466.948 2.539 2.279l1.021 18.894c.071 1.33-.948 2.467-2.279 2.539-.044.002-.088.003-.132.003z"/><path d="m439.944 415.399c-1.045 0-2.008-.685-2.314-1.737l-3.574-12.255c-.373-1.279.361-2.618 1.64-2.991 1.277-.378 2.619.361 2.991 1.64l3.574 12.255c.373 1.279-.361 2.618-1.64 2.991-.225.066-.453.097-.677.097z"/><path d="m468.543 427.655c-.867 0-1.705-.469-2.137-1.29l-10.213-19.404c-.62-1.179-.168-2.637 1.012-3.258 1.178-.619 2.638-.168 3.258 1.012l10.213 19.404c.62 1.179.168 2.637-1.012 3.258-.358.188-.742.278-1.121.278z"/><path d="m441.985 440.421c-1.117 0-2.119-.78-2.358-1.916l-2.042-9.702c-.274-1.304.56-2.583 1.863-2.857 1.312-.277 2.583.561 2.857 1.863l2.042 9.702c.274 1.304-.56 2.583-1.863 2.857-.168.035-.335.053-.499.053z"/><path d="m480.798 401.101c-.81 0-1.601-.407-2.057-1.147l-4.085-6.638c-.698-1.135-.344-2.621.79-3.319 1.135-.695 2.62-.345 3.319.79l4.085 6.638c.698 1.135.344 2.621-.79 3.319-.394.241-.831.357-1.262.357z"/><path d="m344.964 404.165c-.47 0-.944-.137-1.36-.421-1.099-.753-1.381-2.254-.628-3.354l6.638-9.702c.752-1.101 2.254-1.379 3.353-.629 1.099.753 1.381 2.254.628 3.354l-6.638 9.702c-.467.683-1.224 1.05-1.993 1.05z"/><path d="m501.732 363.825c-.259 0-.522-.042-.781-.131l-19.404-6.639c-1.26-.431-1.933-1.803-1.501-3.063s1.802-1.935 3.063-1.501l19.404 6.639c1.26.431 1.933 1.803 1.501 3.063-.342 1.001-1.279 1.632-2.282 1.632z"/><path d="m519.092 393.953c-.412 0-.829-.105-1.211-.328l-21.957-12.767c-1.151-.669-1.542-2.146-.872-3.298.67-1.15 2.146-1.544 3.298-.872l21.957 12.767c1.151.669 1.542 2.146.872 3.298-.448.769-1.256 1.2-2.087 1.2z"/><path d="m302.581 359.739c-1.199 0-2.238-.893-2.391-2.113-.165-1.321.772-2.527 2.094-2.692l24.511-3.063c1.326-.17 2.528.772 2.693 2.095.165 1.321-.772 2.527-2.094 2.692l-24.511 3.063c-.102.012-.203.018-.302.018z"/><path d="m287.777 391.398c-.752 0-1.494-.351-1.965-1.01-.774-1.084-.523-2.591.561-3.365l17.873-12.766c1.083-.774 2.59-.523 3.365.561s.523 2.591-.561 3.365l-17.873 12.766c-.425.304-.915.449-1.4.449z"/></g><path d="m556.338 413.88-21.83 26.043-8.042-10.724 25.276-18.383z" fill="#050001"/><path d="m254.168 408.901-3.064 3.83 20.298 27.192 8.808-10.724z" fill="#050001"/><path d="m340.21 571.029 56.426-11.489 63.319 15.319-14.553 4.34-49.277-13.021z" fill="#050001"/><path d="m477.827 508.731-3.574 63.83-11.148 1.832 8.595-66.428z" fill="#050001"/></svg>